<svg width="144" height="15" fill="none" xmlns="http://www.w3.org/2000/svg"><path fill-rule="evenodd" clip-rule="evenodd" d="M.741 14.527c.494.236.989.473 1.483.473.494 0 .988-.237 1.482-.71.247-.472.494-.945.494-1.418 0-.472-.247-.945-.741-1.418-.988-.945-1.977-.709-2.965 0C.247 11.927 0 12.4 0 12.872c0 .473.247.946.741 1.655Zm0-5.437c.494.237.989.473 1.483.473.494 0 .988-.236 1.482-.709.247-.473.494-.945.494-1.418s-.247-.946-.741-1.418c-.988-.71-1.977-.71-2.965 0C.247 6.49 0 6.963 0 7.436c0 .709.247 1.182.741 1.654Zm5.683-5.436c.247.473.741.709 1.235.709.741 0 1.236-.236 1.73-.71.247-.472.494-.945.494-1.417 0-.473-.247-.946-.741-1.655-.989-.71-2.224-.71-2.965.236-.247.473-.494.946-.494 1.419 0 .472.247.945.74 1.418Zm10.871 10.873c.494.236.988.473 1.483.473.74 0 1.235-.237 1.73-.946.246-.473.493-.945.493-1.418s-.247-.945-.741-1.418c-.988-.71-2.224-.71-2.965.236-.247.473-.494.946-.494 1.418 0 .347.132.693.3 1.131.062.161.128.334.194.524Zm5.683-5.437c.494.237.988.473 1.482.473s.988-.236 1.483-.945c.247-.473.494-.946.494-1.419 0-.472-.247-.945-.741-1.418-.989-.709-2.224-.709-2.965.237-.247.472-.494.945-.494 1.418 0 .709.247 1.182.74 1.654Zm-5.683 0c.494.237.988.473 1.483.473.74 0 1.235-.236 1.73-.709.246-.473.493-.945.493-1.418s-.247-.946-.741-1.655c-.988-.709-2.224-.709-2.965.237-.247.472-.494.945-.494 1.418 0 .709.247 1.182.494 1.654Zm5.683-5.436c.494.473.988.709 1.482.709s.988-.236 1.73-.946c.247-.472.494-.945.494-1.418s-.247-.945-.741-1.418c-.989-.71-2.224-.71-2.965.236-.494.473-.741.946-.741 1.419 0 .472.247.945.74 1.418Zm11.118 10.872c.494.236.988.473 1.482.473.741 0 1.235-.237 1.483-.71.247-.472.494-.945.494-1.418s-.247-.945-.742-1.418c-.988-.71-2.223-.71-2.964.236-.247.473-.494.946-.494 1.418 0 .473.247.946.74 1.419Zm5.682-5.437c.495.237.989.473 1.483.473.494 0 .988-.236 1.482-.71.247-.472.494-.945.494-1.417 0-.473-.247-.946-.74-1.419-.99-.709-2.224-.709-2.966.237-.247.472-.494.945-.494 1.418s.247.945.741 1.418Zm-5.682 0c.494.237.988.473 1.482.473.741 0 1.235-.236 1.483-.71.247-.472.494-.945.494-1.417 0-.473-.247-.946-.742-1.419-.988-.709-2.223-.709-2.964.237-.247.472-.494.945-.494 1.418s.247.945.74 1.418Zm0-5.2c.494.236.988.473 1.482.473.741 0 1.235-.237 1.483-.71.247-.472.494-.945.494-1.418 0-.472-.247-.945-.742-1.418-.988-.71-2.223-.71-2.964.236-.247.473-.494.946-.494 1.419 0 .472.247.945.74 1.418Zm22.237 5.2c.494.236.988.473 1.482.473.741 0 1.235-.236 1.482-.71.247-.472.495-.945.495-1.418 0-.472-.248-.945-.742-1.418-.988-.709-2.223-.709-2.964.237-.248.472-.495.945-.495 1.418s.247.945.742 1.418Zm-5.436-5.2c.494.236.988.473 1.482.473.495 0 .989-.237 1.483-.71.247-.472.494-.945.494-1.418 0-.472-.247-.945-.741-1.418-.989-.71-2.224-.71-2.965.236-.247.473-.494.946-.494 1.419 0 .472.247.945.741 1.418Zm22.236 5.2c.494.236.989.473 1.483.473.74 0 1.235-.236 1.73-.71.246-.472.493-.945.493-1.418 0-.472-.247-.945-.988-1.418-.988-.709-2.224-.709-2.965.237-.247.472-.494.945-.494 1.418s.247.945.741 1.418Zm-5.435-5.2c.494.236.988.473 1.482.473s.988-.237 1.483-.71c.247-.472.494-.945.494-1.418 0-.472-.247-.945-.742-1.418-.988-.71-2.223-.71-2.964.236-.247.473-.494.946-.494 1.419 0 .472.247.945.74 1.418ZM84.25 14.526c.495.236.989.473 1.483.473.741 0 1.235-.237 1.482-.71.247-.472.495-.945.495-1.418s-.248-.945-.742-1.418c-.988-.71-2.223-.71-2.965.236-.247.473-.494.946-.494 1.418 0 .473.247.946.741 1.419Zm5.683-5.437c.494.237.988.473 1.483.473.494 0 .988-.236 1.482-.71.247-.472.494-.945.494-1.417 0-.473-.247-.946-.741-1.419-.988-.709-2.224-.709-2.965.237-.247.472-.494.945-.494 1.418s.247.945.741 1.418Zm-5.683 0c.495.237.989.473 1.483.473.741 0 1.235-.236 1.482-.71.247-.472.495-.945.495-1.417 0-.473-.248-.946-.742-1.419-.988-.709-2.223-.709-2.965.237-.247.472-.494.945-.494 1.418s.247.945.741 1.418Zm5.683-5.2c.494.236.988.473 1.483.473.494 0 .988-.237 1.482-.71.247-.472.494-.945.494-1.418 0-.472-.247-.945-.741-1.418-.988-.71-2.224-.71-2.965.236-.247.473-.494.946-.494 1.419 0 .472.247.945.741 1.418Zm16.801 0c.494.236.988.473 1.482.473s.989-.237 1.483-.71c.247-.472.494-.945.494-1.418 0-.472-.247-.945-.741-1.418-.989-.71-2.224-.71-2.965.236-.247.473-.494.946-.494 1.419 0 .472.247.945.741 1.418Zm11.118 10.637c.494.236.988.473 1.482.473s.988-.237 1.482-.71c.247-.472.495-.945.495-1.418s-.248-.945-.742-1.418c-.988-.71-2.223-.71-2.965.236-.247.473-.494.946-.494 1.418 0 .473.247.946.742 1.419Zm5.435-5.437c.494.237.988.473 1.483.473.741 0 1.235-.236 1.482-.71.247-.472.494-.945.494-1.417 0-.473-.247-.946-.741-1.419-.988-.709-2.224-.709-2.965.237-.247.472-.494.945-.494 1.418s.247.945.741 1.418Zm-5.435 0c.494.237.988.473 1.482.473s.988-.236 1.482-.71c.247-.472.495-.945.495-1.417 0-.473-.248-.946-.742-1.419-.988-.709-2.223-.709-2.965.237-.247.472-.494.945-.494 1.418s.247.945.742 1.418Zm0-5.2c.494.236.988.473 1.482.473s.988-.237 1.482-.71c.247-.472.495-.945.495-1.418 0-.472-.248-.945-.742-1.418-.988-.71-2.223-.71-2.965.236-.247.473-.494.946-.494 1.419 0 .472.247.945.742 1.418Zm16.8 10.637c.494.236.989.473 1.483.473.494 0 .988-.237 1.482-.71.247-.472.494-.945.494-1.418s-.247-.945-.741-1.418c-.988-.71-2.224-.71-2.965.236-.247.473-.494.946-.494 1.418 0 .473.247.946.741 1.419Zm5.436-5.437c.494.237.988.473 1.482.473.742 0 1.236-.236 1.483-.71.247-.472.494-.945.494-1.417 0-.473-.247-.946-.741-1.419-.989-.709-2.224-.709-2.965.237-.247.472-.494.945-.494 1.418s.247.945.741 1.418Zm-5.436 0c.494.237.989.473 1.483.473.494 0 .988-.236 1.482-.71.247-.472.494-.945.494-1.417 0-.473-.247-.946-.741-1.419-.988-.709-2.224-.709-2.965.237-.247.472-.494.945-.494 1.418s.247.945.741 1.418Zm5.436-5.2c.494.236.988.473 1.482.473s1.236-.237 1.483-.71c.247-.472.494-.945.494-1.418 0-.472-.247-.945-.741-1.418-.989-.71-2.224-.71-2.965.236-.247.473-.494.946-.494 1.419 0 .472.247.945.741 1.418Z" fill="#3F3F3F"/></svg>