<svg width="84" height="32" fill="none" xmlns="http://www.w3.org/2000/svg"><path d="M33.374 7.198c1.963 0 3.6-1.636 3.6-3.599 0-1.963-1.637-3.599-3.6-3.599s-3.599 1.636-3.599 3.6c0 2.028 1.57 3.598 3.6 3.598ZM47.77 7.198c1.964 0 3.6-1.636 3.6-3.599C51.37 1.636 49.734 0 47.77 0c-1.962 0-3.598 1.636-3.598 3.6 0 2.028 1.57 3.598 3.599 3.598ZM61.513 7.198c1.964 0 3.6-1.636 3.6-3.599 0-1.963-1.636-3.599-3.6-3.599-1.963 0-3.599 1.636-3.599 3.6 0 2.028 1.57 3.598 3.6 3.598Z" fill="#DBAA21"/><path d="M83.96 8.442c-2.553 8.9-10.733 15.313-20.418 15.313H26.634a18.606 18.606 0 0 1-1.505 1.701C18.454 32.458 8.18 33.832 0 29.513l7.526-7.787c3.337.785 7.067-.13 9.816-2.618.13-.13.327-.261.458-.458l.327-.392c1.309-1.375 2.225-2.945 2.617-4.646h43.06c3.992 0 7.46-2.095 9.358-5.301h10.797v.13Z" fill="#fff"/></svg>