<svg width="50" height="32" fill="none" xmlns="http://www.w3.org/2000/svg"><path d="M13.573 0c1.062 0 1.896.834 1.896 1.896a1.877 1.877 0 0 1-1.896 1.895c-1.061 0-1.971-.834-1.971-1.895C11.678.834 12.512 0 13.573 0ZM35.564 0a1.877 1.877 0 0 0-1.896 1.896c0 1.061.834 1.895 1.896 1.895 1.062 0 1.971-.834 1.971-1.895C37.535.834 36.626 0 35.564 0Z" fill="#DBAA21"/><path d="M39.81 24.948h-2.123v-10.01h2.048c4.474 0 8.265-2.957 9.402-7.128h-5.004c-.91 1.441-2.503 2.427-4.323 2.427h-8.417a9.629 9.629 0 0 0-6.824 2.806 9.629 9.629 0 0 0-6.825-2.806H9.327c-1.82 0-3.412-.986-4.322-2.427H0c1.213 4.095 4.929 7.128 9.403 7.128h2.047v10.01H9.327c-1.82 0-3.412-.986-4.322-2.427H0c1.213 4.095 4.929 7.052 9.403 7.052H17.744c1.744 0 3.337.91 4.247 2.275 0 .076 0 .076-.076.152h5.156c0-.076 0-.076-.076-.152a5.041 5.041 0 0 1 4.247-2.274H39.583c4.474 0 8.265-2.958 9.403-7.129H43.98c-.682 1.517-2.275 2.503-4.17 2.503ZM24.57 27.754a9.629 9.629 0 0 0-6.825-2.806h-2.047v-10.01h2.123c1.744 0 3.336.91 4.246 2.275 0 .076 0 .076-.075.152h5.156c0-.076 0-.076-.076-.152a5.04 5.04 0 0 1 4.246-2.275h2.124v10.01h-2.048a9.629 9.629 0 0 0-6.824 2.806Z" fill="#fff"/></svg>