<svg width="22" height="23" fill="none" xmlns="http://www.w3.org/2000/svg"><path d="M20.858 6.416a.813.813 0 0 1-.21-.014c-.21-.041-.301.283-.091.324.1.018.196.032.296.027.219-.009.223-.346.005-.337Z" fill="#fff"/><path d="M20.39 6.312c-.014-.087-.05-.169-.132-.214a.334.334 0 0 0-.2-.028c-.106.014-.202.032-.302.041a.091.091 0 0 0-.036-.018.185.185 0 0 0 .013-.046c.21-.009.36-.063.506-.205.087.05.178.078.274.096a.586.586 0 0 0 .073.356c.064.114.26.064.251-.069-.01-.146.01-.328-.06-.47-.063-.127-.214-.227-.323-.314-.32-.237-.67-.023-1.017.04-2.03-.036-4.046-.56-6.075-.628h-.014c-.128-.019-.219.173-.087.246.493.278.872.688 1.26 1.094.419.443.816.899 1.135 1.419.036.06.096.073.15.055a.14.14 0 0 0 .073-.01c.917-.42 1.697-.602 2.682-.738.347-.05.666-.137 1.003-.224.247-.06.434-.046.675-.055a.137.137 0 0 0 .128-.1c.01-.023.005-.036.01-.055.009-.018.018-.036.018-.059v-.027a.275.275 0 0 0-.005-.087Zm-4.556 1.09c-.005-.005-.005-.01-.01-.014.014.005.028 0 .042 0a.222.222 0 0 0-.032.014Z" fill="#fff"/><path d="M21.213 5.245c-.347.023-.693.055-1.035.091a.536.536 0 0 1 .365.11c.086.063.196.136.269.228l.451-.096c.173-.041.137-.347-.05-.333ZM2.811 12.455c.028.019.06.028.096.023.766-.105 1.51-.027 2.276.027.374.028.93.156 1.263-.059.21-.132.219-.264.274-.497a5.27 5.27 0 0 0 .11-.607c.004-.004.004-.009.008-.018.032-.11.069-.214.123-.314.333-.22.74-.22 1.145-.197.247.014.543.087.766-.054a.473.473 0 0 0 .174-.206c.013-.013.027-.027.032-.05.009-.018.009-.036.013-.054.005-.01.005-.023.01-.032a.24.24 0 0 0 .036-.069c.05-.137.018-.315.023-.46.004-.215.009-.425.009-.639 0-.214.009-.424-.214-.515-.124-.05-.288-.037-.42-.05a11.98 11.98 0 0 1-.584-.087c.005-.132.01-.265.018-.401.502.022 1.077.027 1.36-.251.282-.279.187-.853.191-1.2.005-.356.183-1.08-.077-1.382-.078-.086-.561-.123-.561-.123-.443-.114-.803-.37-1.104-.707-.06-.068-.142-.045-.187.005a6.127 6.127 0 0 0-1.665.953c-1.067.666-1.91 1.756-2.472 2.837-.552 1.062-1.304 2.896-.739 4.064.028.045.064.059.096.063ZM9.585 15.014a.126.126 0 0 0 .014-.06c-.01-.629.063-1.605-.552-2.006-.443-.292-1.14-.173-1.638-.173H3.15c-.009 0-.013.004-.018.004a.161.161 0 0 0-.063.014c-.028.014-.05.036-.078.055-.041-.019-.091-.014-.132.036-1.15 1.469.77 4.433 1.687 5.587.356.447.79.98 1.29 1.277.11.064.174.114.224.146.183.132.37.255.561.365a.12.12 0 0 0 .123.004c.064-.004.128-.045.124-.127-.005-.119-.01-.238.004-.356a.31.31 0 0 1 .142-.242.18.18 0 0 0 .063-.014.302.302 0 0 1 .124-.027c.278.087.282.766.355.958a.793.793 0 0 0 .365.424c.315.182 1.008.306 1.346.192a.382.382 0 0 0 .228-.197.116.116 0 0 0 .063-.109c.005-.593.005-1.2-.009-1.81a22.12 22.12 0 0 0 .019-1.825c.009-.647.059-1.39.018-2.116Zm-2.458 2.91a.203.203 0 0 1-.055.068 4.733 4.733 0 0 1-.51-.041c-.01-.014-.024-.023-.028-.041-.05-.096-.01-.32-.01-.433 0-.247-.072-1.432.448-1.086.05.032.086.082.114.137.04.465.054.93.04 1.396ZM3.347 17.24c-.023-.05-.064-.064-.105-.064a.166.166 0 0 0-.05-.009c-.702-.009-1.646.073-1.829.921-.11.497.165 1.131.31 1.592.17.534.379 1.05.616 1.555-.05.105-.118.201-.205.288-.27.246-.657.342-.999.433a.17.17 0 0 0-.05.023c-.128.05-.055.269.105.246.036-.005.123.1.169.119a.432.432 0 0 0 .273.009c.183-.041.32-.096.511-.087.192.005.374.018.566.005.177-.01.36.004.433-.183.045-.11.014-.255.009-.37 0-.04-.005-.077-.005-.118.443-.529.68-1.281.653-2.002.428.219.866.41 1.327.566.137.045.214-.133.132-.224a12.48 12.48 0 0 1-1.86-2.7ZM17.771 21.978c-.013-.009-.027-.018-.05-.023-.342-.09-.73-.182-.994-.433a.9.9 0 0 1-.205-.287c.237-.506.451-1.022.615-1.555.146-.461.434-1.1.31-1.592-.25-1.012-2.234-.967-2.941-.958-.1 0-.146.023-.155.078-.206 1.094-.265 1.737-.748 2.74-.055.115-.005.27.132.224.46-.155.899-.342 1.327-.565-.027.716.206 1.468.652 2.002 0 .04-.004.077-.004.118-.005.11-.037.26.009.37.078.187.26.173.433.182.192.01.374 0 .566-.004.196-.005.328.045.51.086a.432.432 0 0 0 .274-.009c.046-.018.133-.123.169-.118.155.013.224-.206.1-.256Z" fill="#fff"/><path d="M14.38 16.245c.393-.046.762-.023 1.159-.01.219.01.415 0 .597-.136.374-.283.47-.807.506-1.254.201-.84.402-2.176-.451-2.08-1.72.082-3.452-.014-5.172.032-1.359.077-1.154 1.227-1.113 2.33.014.315-.082 1.072.237 1.3.11.078.22.05.338.064.31.032.543.05.716.155.328 1.3-.424 3.11-.917 4.274-.027.059-.004.109.037.132.018.036.054.06.11.055.939-.1 2.01-.238 2.599-1.077.296-.424.41-.967.538-1.455.16-.602.219-1.956.816-2.33ZM11.056 12.418c.3 0 .606 0 .907-.005.17 0 .452.055.607-.063.42-.315-.246-1.296.524-1.3.735.018.105 1.295.83 1.45.434.091.981-.023 1.423-.041.333-.014.785.05 1.095-.096.474-.223.365-.693.255-1.113a.115.115 0 0 0 0-.068c-.392-1.532-.725-2.71-1.61-4.013-.77-1.132-1.778-1.802-2.978-2.459-.04-.023-.095-.027-.137 0a3.264 3.264 0 0 1-2.002.657c-.091 0-.132.078-.127.15 0 .01-.005.014-.005.023-.005 2.016-.096 4.064.01 6.08.05.935.31.853 1.208.798Zm1.655-3.357c.01-.11.018-.228.06-.328.036-.091.228-.292.364-.251.087.219.142.442.15.68.005.109.005.278-.031.378-.05.142-.306.37-.46.205-.124-.123-.092-.515-.083-.684ZM6.605 1.692a.482.482 0 0 1-.324.187c-.014.004-.032.013-.05.013-.037.005-.069.023-.083.06a.126.126 0 0 0 0 .082c0 .04.028.082.083.082a.513.513 0 0 0 .282-.096c.064-.05.155-.141.16-.228a.125.125 0 0 0-.068-.1Z" fill="#fff"/><path d="M6.45 1.523a.594.594 0 0 1-.192.082c-.013.005-.027.01-.04.01-.037.004-.07.022-.083.059a.126.126 0 0 0 0 .082c0 .04.028.082.082.082a.513.513 0 0 0 .283-.096c.064-.05.155-.141.16-.228 0-.06-.041-.1-.091-.11a.487.487 0 0 1-.119.12Z" fill="#fff"/><path d="M4.444 6.417c.05.069.17.092.233 0a4.81 4.81 0 0 1 1.587-1.473c.064-.036.073-.1.055-.155 0-.009 0-.018-.005-.027-.428-.972-1.354-1.332-2.353-1.05-.005-.027-.005-.058-.005-.086.22-.05.43-.141.575-.246.401-.287.593-.689.821-1.086a.15.15 0 0 0 .073-.032c.132.055.32.032.442.005.087-.018.17-.055.22-.132.054-.091.018-.192.04-.283a.093.093 0 0 1-.027-.068.14.14 0 0 1 .005-.096.076.076 0 0 1 .04-.05c-.054-.055-.16-.069-.218.013-.064.087-.055.155-.064.242-.082-.146-.242-.2-.406-.178.004-.018.004-.036.004-.06.096.028.201.02.288-.058a.541.541 0 0 0 .137-.238.985.985 0 0 1 .077-.155.665.665 0 0 1 .114-.11.17.17 0 0 1-.04.179c-.115.132.077.324.19.191.12-.136.224-.3.133-.483-.078-.155-.287-.27-.456-.287-.379-.046-.766.346-.94.652-.875.433-1.824 1.053-2.276 1.943-.031.013-.054.04-.063.086-.005.028-.005.05-.01.078v.004c-.068.566.073 1.09.393 1.574.337.506.88 1.104 1.436 1.386Zm-.187-.985c.005.005.01.01.01.018 0 0-.005 0-.005-.004-.01-.005-.018 0-.027 0 .009-.005.013-.01.022-.014Zm-.1.037c-.01.004-.018.009-.023.018-.004-.01-.009-.018-.013-.023.009 0 .022 0 .036.005Zm-1.012-1.51v.01c-.005 0-.014 0-.019.004.01-.01.014-.014.019-.014Z" fill="#fff"/><path d="M6.221 1.502c-.1.055-.031.078.019.068.1-.027.132-.027.214-.09.064-.051.155-.142.16-.229a.113.113 0 0 0-.146-.11c-.023.005-.041.019-.06.033-.009.127-.073.269-.187.328ZM20.934 5.677a.853.853 0 0 0-.155.013c.023.028.046.06.064.092a.64.64 0 0 1 .05.232h.046c.21 0 .21-.337-.005-.337ZM20.922 6.042c-.014 0-.027-.004-.041-.004.014.104.009.219.018.314 0 .01 0 .014-.005.023h.028c.219.014.219-.324 0-.333ZM10.877 1.085s.005-.004 0 0c.165-.42-.155-.998-.597-1.058-.392-.054-.67.169-.794.488a.835.835 0 0 0-.073.306c-.004.06.01.118.032.178.493-.005.954.004 1.432.086ZM8.908 1.93c.206-.11.735-.023.945-.018.392 0 .78.009 1.172.027.022 0 .04.014.05.037.073.282.082.68.2.94-.068.286.032.396.292.337a.523.523 0 0 0 .324 0c-.023-.762-.328-1.601-.907-1.952-.028-.019-.055-.028-.082-.041-.498-.092-.981-.096-1.492-.096-.616.173-1.136.616-1.313 1.281-.06.224-.096.47-.119.716.67.228.57-1.04.93-1.231Z" fill="#fff"/><path d="M11.707 4.296a.551.551 0 0 0 .104-.173c.26.01.557-.155.557-.447 0-.223-.242-.356-.456-.333-.21.078-.497.164-.652.014-.192-.187-.069-.807-.201-1.045-.214-.396-.68-.3-1.067-.3-.525-.005-.98-.069-1.26.45-.1.192-.068.667-.255.826-.187.15-.314.082-.506-.013v.009c-.228-.023-.451.027-.488.315-.04.323.224.47.497.497v.022c.064.653.534.899 1.14.99.799.119 2.14-.014 2.587-.812Zm.164-.51c.009-.05.013-.1.018-.156.082-.073.269.023.16.142a.276.276 0 0 1-.187.086.405.405 0 0 0 .009-.072Zm-4.119-.142c.014-.105.11-.118.215-.1 0 .096 0 .191.004.283-.114-.014-.237-.055-.219-.183Zm1.45-.844c.142.096.297.17.434.265.087.06.004.205-.087.146-.141-.096-.292-.169-.433-.265-.091-.059-.005-.205.087-.146Zm.256.561a.082.082 0 0 1-.082.082.082.082 0 0 1-.082-.082c0-.045.036-.082.082-.082.046 0 .082.037.082.082ZM9.07 4.866c-.068.037-.127-.063-.059-.1.36-.21.401-.67.087-.944-.06-.05.027-.132.082-.082.37.32.315.88-.11 1.126Zm.79-.46h-.074c-.127 0-.127-.196 0-.196h.073c.128-.005.128.196 0 .196Zm.214-.438c-.055.055-.146.041-.215.046-.155.004-.378.022-.314-.201.018-.064.114-.037.095.027-.027.11.151.073.197.073.068 0 .196.01.168-.1-.018-.064.082-.091.096-.027.018.063.018.136-.027.182Zm.57-.073a.451.451 0 0 0-.1.816c.063.041.004.146-.06.1a.57.57 0 0 1 .128-1.03c.073-.027.105.087.032.114Zm-.274-.534c0-.045.037-.082.082-.082.046 0 .082.037.082.082a.082.082 0 0 1-.082.082c-.045.005-.082-.036-.082-.082Zm.278-.415c-.141.096-.296.17-.433.265-.086.064-.173-.082-.086-.146.14-.096.291-.169.433-.265.091-.059.173.087.086.146Z" fill="#fff"/></svg>