<svg width="24" height="24" fill="none" xmlns="http://www.w3.org/2000/svg"><path fill-rule="evenodd" clip-rule="evenodd" d="M0 12C0 5.373 5.373 0 12 0s12 5.373 12 12-5.373 12-12 12S0 18.627 0 12ZM12 1.714C6.32 1.714 1.714 6.32 1.714 12S6.32 22.286 12 22.286 22.286 17.68 22.286 12 17.68 1.714 12 1.714Z" fill="#fff"/><path fill-rule="evenodd" clip-rule="evenodd" d="M7.066 3.705C8.238 1.595 9.972 0 12 0s3.762 1.594 4.934 3.705c1.2 2.16 1.959 5.092 1.959 8.295 0 3.203-.76 6.136-1.96 8.295C15.763 22.405 14.029 24 12 24s-3.762-1.595-4.934-3.705c-1.2-2.16-1.959-5.092-1.959-8.295 0-3.203.76-6.136 1.96-8.295Zm1.499.832C7.525 6.41 6.82 9.05 6.82 12c0 2.95.703 5.59 1.744 7.463 1.068 1.923 2.352 2.823 3.435 2.823 1.083 0 2.367-.9 3.435-2.823C16.475 17.59 17.18 14.95 17.18 12c0-2.95-.703-5.59-1.744-7.463C14.367 2.614 13.083 1.714 12 1.714c-1.083 0-2.367.9-3.435 2.823Z" fill="#fff"/><path fill-rule="evenodd" clip-rule="evenodd" d="M3.872 4.075a.857.857 0 0 1 1.195-.203C6.971 5.224 9.377 6.036 12 6.036c2.624 0 5.03-.812 6.933-2.164a.857.857 0 0 1 .992 1.398C17.731 6.828 14.979 7.75 12 7.75s-5.731-.922-7.925-2.48a.857.857 0 0 1-.203-1.195ZM4.075 18.73c2.194-1.558 4.946-2.48 7.925-2.48s5.731.922 7.925 2.48a.857.857 0 0 1-.992 1.398c-1.904-1.352-4.31-2.164-6.933-2.164-2.624 0-5.03.812-6.933 2.164a.857.857 0 0 1-.992-1.398Z" fill="#fff"/><path fill-rule="evenodd" clip-rule="evenodd" d="M11.143 23.143V.857h1.714v22.286h-1.714Z" fill="#fff"/><path fill-rule="evenodd" clip-rule="evenodd" d="M.857 11.143h22.286v1.714H.857v-1.714Z" fill="#fff"/></svg>