<svg width="20" height="20" fill="none" xmlns="http://www.w3.org/2000/svg"><path fill-rule="evenodd" clip-rule="evenodd" d="M14.166 1.667a4.18 4.18 0 0 1 4.168 4.166v8.333a4.18 4.18 0 0 1-4.168 4.168H5.833a4.18 4.18 0 0 1-4.166-4.168V5.833a4.18 4.18 0 0 1 4.166-4.166h8.333Zm0-1.667H5.833C2.625 0 0 2.625 0 5.833v8.333C0 17.375 2.625 20 5.833 20h8.333C17.375 20 20 17.375 20 14.166V5.833C20 2.625 17.375 0 14.166 0Zm1.251 5.833a1.25 1.25 0 1 1 0-2.5 1.25 1.25 0 0 1 0 2.5Zm-3.565 1.395a3.334 3.334 0 1 0-3.704 5.544 3.334 3.334 0 0 0 3.704-5.544Zm-4.63-1.385a5 5 0 1 1 5.556 8.314 5 5 0 0 1-5.556-8.314Z" fill="#fff"/></svg>