<svg width="69" height="38" fill="none" xmlns="http://www.w3.org/2000/svg"><path d="M25.875 7.232c-1.355-.858-2.957-1.226-4.682-1.226-4.929 0-8.995 4.046-8.995 8.949s4.066 8.948 8.995 8.948c1.725 0 3.327-.49 4.682-1.226v1.226h4.436V6.374h-4.436v.858Zm-4.682 12.136c-2.588 0-4.682-2.084-4.682-4.658 0-2.575 2.094-4.658 4.682-4.658 2.587 0 4.682 2.084 4.682 4.658-.123 2.574-2.218 4.658-4.682 4.658ZM64.564 6.374v.736c-1.355-.858-2.957-1.226-4.682-1.226-4.928 0-8.994 4.045-8.994 8.948 0 4.903 4.066 8.949 8.994 8.949 1.725 0 3.327-.49 4.682-1.226v1.225H69V6.376h-4.436Zm-4.682 12.994c-2.587 0-4.682-2.084-4.682-4.658 0-2.575 2.095-4.658 4.682-4.658 2.588 0 4.682 2.084 4.682 4.658-.123 2.574-2.094 4.658-4.682 4.658ZM38.443 0h-4.312v6.374H31.79v4.413h2.34v12.994h4.313V10.787h2.588V6.374h-2.588V0ZM47.068 12.258c.862-1.226 2.218-2.084 3.943-2.084h.123v-4.29h-.123c-1.479 0-2.834.368-4.067.98v-.49H42.51v17.407h4.435V12.258h.124Z" fill="#fff"/><path d="M13.554 6.374H7.639L4.436 9.93V0H0v23.78h4.436v-4.412l3.943 4.413h6.037L6.037 14.71l7.517-8.336ZM27.97 26.477c-.863 0-1.602.736-1.602 1.594 0 .858.739 1.593 1.602 1.593.862 0 1.601-.735 1.601-1.593s-.739-1.594-1.602-1.594ZM27.97 34.69c-.863 0-1.602.736-1.602 1.594 0 .858.739 1.593 1.602 1.593.862 0 1.601-.735 1.601-1.593s-.739-1.594-1.602-1.594ZM36.348 26.477c-.862 0-1.601.736-1.601 1.594 0 .858.739 1.593 1.601 1.593.863 0 1.602-.735 1.602-1.593s-.74-1.594-1.602-1.594ZM46.205 34.69c-.862 0-1.602.736-1.602 1.594 0 .858.74 1.593 1.602 1.593.863 0 1.602-.735 1.602-1.593.123-.858-.616-1.594-1.602-1.594ZM50.887 26.477c-.862 0-1.601.736-1.601 1.594 0 .858.739 1.593 1.601 1.593.863 0 1.602-.735 1.602-1.593.123-.858-.616-1.594-1.602-1.594ZM50.887 30.645c-.862 0-1.601.736-1.601 1.594 0 .858.739 1.593 1.601 1.593.863 0 1.602-.735 1.602-1.593s-.616-1.594-1.602-1.594ZM46.205 30.645c-.862 0-1.602.736-1.602 1.594 0 .858.74 1.593 1.602 1.593.863 0 1.602-.735 1.602-1.593s-.616-1.594-1.602-1.594ZM61.607 30.645c-.862 0-1.602.736-1.602 1.594 0 .858.74 1.593 1.602 1.593.863 0 1.602-.735 1.602-1.593s-.74-1.594-1.602-1.594ZM56.925 30.645c-.862 0-1.602.736-1.602 1.594 0 .858.74 1.593 1.602 1.593.863 0 1.602-.735 1.602-1.593s-.74-1.594-1.602-1.594ZM56.925 26.477c-.862 0-1.602.736-1.602 1.594 0 .858.74 1.593 1.602 1.593.863 0 1.602-.735 1.602-1.593s-.74-1.594-1.602-1.594ZM56.925 34.69c-.862 0-1.602.736-1.602 1.594 0 .858.74 1.593 1.602 1.593.863 0 1.602-.735 1.602-1.593s-.74-1.594-1.602-1.594ZM67.152 26.477c-.863 0-1.602.736-1.602 1.594 0 .858.74 1.593 1.602 1.593.862 0 1.601-.735 1.601-1.593s-.739-1.594-1.601-1.594Z" fill="#fff"/></svg>