<svg width="34" height="34" fill="none" xmlns="http://www.w3.org/2000/svg"><path fill-rule="evenodd" clip-rule="evenodd" d="M4.332 18.768a2.5 2.5 0 1 0-3.536-3.536 2.5 2.5 0 0 0 3.536 3.536Zm7.07-7.071A2.5 2.5 0 1 0 7.868 8.16a2.5 2.5 0 0 0 3.536 3.536ZM18.475 1.09a2.5 2.5 0 1 1-3.535 3.536 2.5 2.5 0 0 1 3.535-3.536ZM11.403 25.84a2.5 2.5 0 1 0-3.536-3.536 2.5 2.5 0 0 0 3.536 3.536ZM25.544 8.16a2.5 2.5 0 1 1-3.535 3.536 2.5 2.5 0 0 1 3.535-3.536Zm-7.07 24.749a2.5 2.5 0 1 0-3.535-3.536 2.5 2.5 0 0 0 3.535 3.536Zm7.07-10.607a2.5 2.5 0 1 1-3.535 3.536 2.5 2.5 0 0 1 3.535-3.536Zm7.072-3.535a2.5 2.5 0 1 0-3.536-3.536 2.5 2.5 0 0 0 3.536 3.536Z" fill="#fff"/></svg>