<svg width="26" height="26" fill="none" xmlns="http://www.w3.org/2000/svg"><path d="M2.116.84a1.193 1.193 0 0 0-1.7 0 1.223 1.223 0 0 0 0 1.717l8.396 8.482a3.122 3.122 0 0 1 0 4.392L.914 23.41a1.223 1.223 0 0 0 0 1.717c.47.474 1.23.474 1.7 0l7.855-7.936a3.119 3.119 0 0 1 4.433 0l7.613 7.692c.47.474 1.23.474 1.7 0s.47-1.243 0-1.718l-7.657-7.735a3.122 3.122 0 0 1 0-4.392l8.154-8.238c.47-.474.47-1.243 0-1.718a1.193 1.193 0 0 0-1.7 0l-8.11 8.195a3.119 3.119 0 0 1-4.433 0L2.116.839Z" fill="#fff"/></svg>