<svg width="25" height="25" viewBox="0 0 25 25" fill="none" xmlns="http://www.w3.org/2000/svg">
    <g clip-path="url(#clip0_37_570)">
        <path fill-rule="evenodd" clip-rule="evenodd"
              d="M2.5 5C3.16304 5 3.79893 4.73661 4.26777 4.26777C4.73661 3.79893 5 3.16304 5 2.5C5 1.83696 4.73661 1.20107 4.26777 0.732233C3.79893 0.263392 3.16304 0 2.5 0C1.83696 0 1.20107 0.263392 0.732233 0.732233C0.263392 1.20107 0 1.83696 0 2.5C0 3.16304 0.263392 3.79893 0.732233 4.26777C1.20107 4.73661 1.83696 5 2.5 5V5ZM12.5 5C13.163 5 13.7989 4.73661 14.2678 4.26777C14.7366 3.79893 15 3.16304 15 2.5C15 1.83696 14.7366 1.20107 14.2678 0.732233C13.7989 0.263392 13.163 0 12.5 0C11.837 0 11.2011 0.263392 10.7322 0.732233C10.2634 1.20107 10 1.83696 10 2.5C10 3.16304 10.2634 3.79893 10.7322 4.26777C11.2011 4.73661 11.837 5 12.5 5V5ZM25 2.5C25 3.16304 24.7366 3.79893 24.2678 4.26777C23.7989 4.73661 23.163 5 22.5 5C21.837 5 21.2011 4.73661 20.7322 4.26777C20.2634 3.79893 20 3.16304 20 2.5C20 1.83696 20.2634 1.20107 20.7322 0.732233C21.2011 0.263392 21.837 0 22.5 0C23.163 0 23.7989 0.263392 24.2678 0.732233C24.7366 1.20107 25 1.83696 25 2.5V2.5ZM2.5 15C3.16304 15 3.79893 14.7366 4.26777 14.2678C4.73661 13.7989 5 13.163 5 12.5C5 11.837 4.73661 11.2011 4.26777 10.7322C3.79893 10.2634 3.16304 10 2.5 10C1.83696 10 1.20107 10.2634 0.732233 10.7322C0.263392 11.2011 0 11.837 0 12.5C0 13.163 0.263392 13.7989 0.732233 14.2678C1.20107 14.7366 1.83696 15 2.5 15V15ZM25 12.5C25 13.163 24.7366 13.7989 24.2678 14.2678C23.7989 14.7366 23.163 15 22.5 15C21.837 15 21.2011 14.7366 20.7322 14.2678C20.2634 13.7989 20 13.163 20 12.5C20 11.837 20.2634 11.2011 20.7322 10.7322C21.2011 10.2634 21.837 10 22.5 10C23.163 10 23.7989 10.2634 24.2678 10.7322C24.7366 11.2011 25 11.837 25 12.5V12.5ZM2.5 25C3.16304 25 3.79893 24.7366 4.26777 24.2678C4.73661 23.7989 5 23.163 5 22.5C5 21.837 4.73661 21.2011 4.26777 20.7322C3.79893 20.2634 3.16304 20 2.5 20C1.83696 20 1.20107 20.2634 0.732233 20.7322C0.263392 21.2011 0 21.837 0 22.5C0 23.163 0.263392 23.7989 0.732233 24.2678C1.20107 24.7366 1.83696 25 2.5 25V25ZM15 22.5C15 23.163 14.7366 23.7989 14.2678 24.2678C13.7989 24.7366 13.163 25 12.5 25C11.837 25 11.2011 24.7366 10.7322 24.2678C10.2634 23.7989 10 23.163 10 22.5C10 21.837 10.2634 21.2011 10.7322 20.7322C11.2011 20.2634 11.837 20 12.5 20C13.163 20 13.7989 20.2634 14.2678 20.7322C14.7366 21.2011 15 21.837 15 22.5ZM22.5 25C23.163 25 23.7989 24.7366 24.2678 24.2678C24.7366 23.7989 25 23.163 25 22.5C25 21.837 24.7366 21.2011 24.2678 20.7322C23.7989 20.2634 23.163 20 22.5 20C21.837 20 21.2011 20.2634 20.7322 20.7322C20.2634 21.2011 20 21.837 20 22.5C20 23.163 20.2634 23.7989 20.7322 24.2678C21.2011 24.7366 21.837 25 22.5 25Z"
              fill="white"/>
    </g>
    <defs>
        <clipPath id="clip0_37_570">
            <rect width="25" height="25" fill="white"/>
        </clipPath>
    </defs>
</svg>
