<svg width="15" height="21" fill="none" xmlns="http://www.w3.org/2000/svg"><path fill-rule="evenodd" clip-rule="evenodd" d="M5.424 3.081c-.066-.586-.391-1.108-.913-1.564-.521-.39-1.108-.586-1.694-.521-.587.065-1.108.39-1.565.912-.39.522-.586 1.108-.52 1.695.064.586.39 1.108.912 1.564.52.456 1.107.586 1.694.521.587-.065 1.108-.39 1.499-.912.456-.522.652-1.108.587-1.695Zm0 15.25c-.066-.586-.391-1.107-.913-1.563-.521-.391-1.108-.587-1.694-.522-.587.066-1.108.391-1.565.913-.39.521-.586 1.108-.52 1.694.064.587.39 1.108.912 1.564.52.457 1.107.587 1.694.522.587-.065 1.108-.391 1.499-.913.456-.521.652-1.108.587-1.694ZM4.51 9.274c.522.456.847.977.913 1.564.065.587-.13 1.173-.587 1.694-.391.522-.912.848-1.499.913-.587.065-1.173-.065-1.694-.522-.522-.456-.848-.977-.913-1.564-.065-.586.13-1.173.521-1.694.457-.522.978-.847 1.565-.913.586-.065 1.173.13 1.694.522ZM9.855 6.6c-.065-.587-.39-1.108-.912-1.564-.521-.457-1.108-.587-1.76-.587-.586.065-1.108.391-1.564.912-.391.522-.586 1.108-.521 1.695A2.31 2.31 0 0 0 6.01 8.62c.587.456 1.173.652 1.76.587.586-.066 1.108-.391 1.564-.913.391-.521.587-1.108.521-1.694Zm-.912 6.387c.521.456.847.977.912 1.564.066.586-.13 1.173-.521 1.694-.456.522-.978.848-1.564.913-.587.065-1.238-.066-1.76-.522-.521-.456-.847-.977-.912-1.564-.065-.586.13-1.173.521-1.694.456-.522.978-.848 1.564-.913.652-.065 1.239.13 1.76.522Zm5.344-2.868c-.065-.587-.39-1.108-.912-1.564-.587-.391-1.173-.587-1.695-.522-.586.066-1.108.391-1.564.913-.391.521-.587 1.108-.521 1.694.065.587.39 1.108.912 1.565.521.39 1.108.586 1.695.52.586-.064 1.107-.39 1.564-.912.39-.52.586-1.107.521-1.694Z" fill="#D4AB42"/></svg>