<svg width="128" height="131" fill="none" xmlns="http://www.w3.org/2000/svg"><path d="M72.2 2.1c-.3-.6-.8-1.1-1.4-1.4-.6-.3-1.4-.5-2.3-.5L63.9 0l-.2 11.8h2.5V8h2.1c.9 0 1.7-.1 2.3-.5.6-.3 1.1-.8 1.5-1.4.3-.6.5-1.3.5-2.1.1-.7-.1-1.3-.4-1.9Zm-2.4 3c-.2.3-.4.5-.7.7-.3.2-.7.2-1.2.2h-1.7l.1-3.9H68c.5 0 .9.1 1.2.3.3.2.5.4.7.7.2.3.2.6.2 1s-.1.7-.3 1ZM73.7 12l2-11.6 2.4.4-1.6 9.6 5 .9-.4 2-7.4-1.3ZM89.8 3.7l-7.9 9.6 2.5.9 1.7-2.2 4 1.5-.1 2.8 2.5.9.3-12.4-3-1.1Zm-2.4 6.7 2.9-3.7h.1l-.2 4.7-2.8-1ZM97.7 6.7l2.4 1.5-.3 5.7h.1l4.9-2.9 2.4 1.4-7.6 4.3-2.1 3.6-2.1-1.3 2.1-3.5.2-8.8ZM117.9 93.2l-1.3 2.1 3.3 2-1.1 1.8c-.5.8-.7 1.5-.8 2.2 0 .7.1 1.4.4 2 .3.6.8 1.1 1.5 1.5.7.4 1.3.6 2 .6s1.3-.1 2-.5c.6-.4 1.2-.9 1.6-1.7l2.4-4-10-6Zm6.2 8.6c-.3.4-.5.7-.8.9-.3.2-.6.3-.9.2-.3 0-.7-.1-1-.3-.3-.2-.6-.4-.8-.7-.2-.3-.3-.6-.2-1 0-.4.2-.7.4-1.1l.9-1.4 3.4 2-1 1.4ZM107.7 107.3l1.5 1.4 3.3-3.9 7.4 6.4 1.6-1.9-8.9-7.7-4.9 5.7ZM105.1 109.7l1 2.6-3.3 2.7-2.4-1.5-2.1 1.7 10.5 6.7 2.5-2-4.2-11.7-2 1.5Zm3.3 9-3.9-2.6 2.3-1.9 1.6 4.5ZM95.4 116.6l-2.2 1.1 2 3.7-.2 8.7 2.4-1.3v-5.7l.1-.1 4.8 3.2 2.4-1.3-7.4-4.7-1.9-3.6ZM17.4 100.1l-1.1-1.8c-.5-.8-1-1.3-1.6-1.7-.6-.4-1.3-.6-1.9-.5-.7 0-1.4.2-2 .6-.7.4-1.2.9-1.5 1.5-.3.6-.5 1.2-.5 2 0 .7.3 1.5.7 2.2l2.4 4 10.1-6.1-1.3-2.1-3.3 1.9Zm-5 3-.9-1.4c-.2-.4-.4-.8-.4-1.2 0-.4.1-.7.2-1 .2-.3.4-.5.8-.7.3-.2.7-.3 1-.3.3 0 .7.1 1 .2.3.2.6.5.8.9l.9 1.4-3.4 2.1ZM14.3 84.6l-2 .7 1.9 4.7-9.1 3.6 1 2.3L17 91.6l-2.7-7ZM13.4 81.2l-2.8-.4-.8-4.2 2.5-1.4-.5-2.6L1 78.9l.6 3.1 12.3 1.8-.5-2.6ZM3.9 80 8 77.7l.6 2.9-4.7-.6ZM11.9 69.4l-.1-2.5-4.1.1L0 62.8v2.8l5.2 2.6v.1L.1 71.1l.1 2.8 7.5-4.4 4.2-.1ZM117.6 67.8c0-27.4-22.3-49.7-49.7-49.7-27.4 0-49.7 22.3-49.7 49.7 0 27.4 22.3 49.7 49.7 49.7 27.4 0 49.7-22.3 49.7-49.7Zm-49.8 48.4c-26.7 0-48.4-21.7-48.4-48.4s21.7-48.4 48.4-48.4 48.4 21.7 48.4 48.4c.1 26.7-21.7 48.4-48.4 48.4Z" fill="#fff"/><path d="M55.5 124.2c-.4 1.5-2 2.3-3.5 1.9-1.5-.4-2.3-2-1.9-3.5.4-1.5 2-2.3 3.5-1.9 1.6.5 2.4 2 1.9 3.5ZM22.7 26.6l4 3.9 2.4-6.6-6.4 2.7ZM125.824 49.293l-5.401 1.476.527 1.93 5.402-1.477-.528-1.929ZM126.718 52.488l-5.401 1.476.527 1.93 5.402-1.477-.528-1.929Z" fill="#DFAA25"/></svg>