<svg width="61" height="313" fill="none" xmlns="http://www.w3.org/2000/svg"><path fill-rule="evenodd" clip-rule="evenodd" d="M61 40 49.009 12.322 54.098.471H46.15L29 40l11.991 27.678-5.089 11.851h.019L19 118.53l11.991 27.678L27.215 155h-.065L10 194.529l11.991 27.678-5.089 11.852h.019L0 273.059l11.991 27.677-5.089 11.852h7.948L32 273.059l-11.991-27.678 5.089-11.852h-.019l16.921-39-11.991-27.677 3.776-8.793h.065L51 118.529 39.009 90.852 44.098 79h-.019L61 40Zm-23.843 0 7.878-18.893L52.913 40l-7.948 18.824L37.157 40Zm5.686 78.529-7.878 18.894-7.878-18.894 7.948-18.823 7.808 18.823Zm-24.686 76 7.878-18.893 7.878 18.893-7.948 18.824-7.808-18.824Zm5.686 78.53-7.878 18.893-7.878-18.893 7.948-18.824 7.808 18.824Z" fill="#fff"/><path fill-rule="evenodd" clip-rule="evenodd" d="M44.965 37.35a2.648 2.648 0 0 0-2.65 2.65 2.648 2.648 0 0 0 2.65 2.65 2.648 2.648 0 0 0 2.65-2.65c.07-1.464-1.186-2.65-2.65-2.65ZM23.315 194.53a2.648 2.648 0 0 1 2.65-2.649c1.464 0 2.72 1.185 2.65 2.649a2.649 2.649 0 1 1-5.3 0Zm-4.63 78.53a2.648 2.648 0 0 1-2.65 2.649c-1.464 0-2.72-1.185-2.65-2.649a2.648 2.648 0 0 1 2.65-2.649 2.648 2.648 0 0 1 2.65 2.649Zm19-154.53a2.649 2.649 0 0 1-2.65 2.65c-1.464 0-2.72-1.186-2.65-2.65a2.648 2.648 0 0 1 2.65-2.649 2.648 2.648 0 0 1 2.65 2.649Z" fill="#DBAA21"/></svg>