<svg width="24" height="32" fill="none" xmlns="http://www.w3.org/2000/svg"><path d="M6.521 14.356a.86.86 0 0 0-.856-.856.86.86 0 0 0-.857.856.856.856 0 1 0 1.713 0Z" fill="#DBAA21"/><path d="M23.587 11.68C23.524 5.23 18.259 0 11.795 0 5.29 0 .003 5.292.003 11.795H0v8.862h.011C.248 26.954 5.445 32 11.795 32c6.473 0 11.743-5.243 11.792-11.703V11.68Zm-3.07 8.525h-.008c0 4.807-3.909 8.72-8.717 8.72-4.805 0-8.717-3.913-8.717-8.72H3.07V13.26a3 3 0 0 1 2.519-1.371h.137c1.09 0 2.041.585 2.57 1.454H8.28v5.723h2.987v-5.723a5.84 5.84 0 0 0-7.91-3.753 8.751 8.751 0 0 1 5.166-5.875 6.174 6.174 0 0 0 1.781 4.621 6.194 6.194 0 0 0 7.361 1.083L15.45 7.177a3.183 3.183 0 0 1-3.01-.854l-.103-.103c-.802-.811-1.039-2.099-.793-3.136.082-.003.162-.003.245-.003 4.806 0 8.717 3.91 8.717 8.72h.009v8.404h.002Z" fill="#000"/></svg>