<svg width="16" height="32" fill="none" xmlns="http://www.w3.org/2000/svg"><path d="M7.759 6.391c-.74 0-1.368.606-1.368 1.368 0 .74.606 1.368 1.368 1.368.74 0 1.368-.606 1.368-1.368a1.36 1.36 0 0 0-1.368-1.368Z" fill="#DBAA21"/><path d="M9.643 19.42v-4.171c3.363-.852 5.852-3.88 5.852-7.49A7.762 7.762 0 0 0 7.737 0C3.476 0 0 3.476 0 7.759c0 3.61 2.512 6.66 5.853 7.49v4.53a7.75 7.75 0 0 0-3.386-.785h-.068v3.655h.157c1.39 0 2.602.717 3.297 1.771V32H9.598v-2.826a3.972 3.972 0 0 1 3.319-1.816h.157v-3.633h-.023c-1.233 0-2.4.292-3.408.785V19.42Zm-1.817-7.692H7.67A3.967 3.967 0 0 1 3.7 7.737a3.962 3.962 0 0 1 3.97-3.97h.179a3.967 3.967 0 0 1 3.991 3.97c0 2.197-1.794 3.991-4.014 3.991Z" fill="#000"/></svg>