<svg width="47" height="32" fill="none" xmlns="http://www.w3.org/2000/svg"><path d="M45.969 0h-4.572c-.846 1.355-2.285 2.286-3.978 2.286H29.63c-2.455 0-4.656 1.016-6.349 2.624a9.03 9.03 0 0 0-6.35-2.624H9.145C7.45 2.286 6.01 1.355 5.164 0H.595v23.196c1.1 3.81 4.57 6.518 8.719 6.518H17.1c1.609 0 3.048.847 3.894 2.117 0 .084 0 .084-.084.169h4.826c0-.085 0-.085-.085-.17.846-1.27 2.285-2.116 3.894-2.116h7.788c4.148 0 7.62-2.793 8.72-6.518V0h-.085ZM17.016 25.482H9.229c-1.693 0-3.132-.932-3.979-2.286V5.503c1.27.677 2.625 1.016 4.148 1.016h7.789c1.608 0 3.047.846 3.894 2.116 0 .085 0 .085-.085.17h.085v17.608c-1.27-.593-2.624-.931-4.063-.931Zm24.382-2.202c-.847 1.355-2.286 2.286-3.98 2.286H29.63c-1.439 0-2.793.339-4.063.931V8.89h.084c0-.085 0-.085-.084-.17.846-1.27 2.285-2.116 3.894-2.116h7.788c1.524 0 2.879-.338 4.148-1.016V23.28Z" fill="#3F3F3F"/><path d="M12.191 18.286c.931 0 1.778-.762 1.778-1.778 0-.931-.762-1.778-1.778-1.778-.931 0-1.778.762-1.778 1.778s.762 1.778 1.778 1.778ZM33.44 18.286c.931 0 1.778-.762 1.778-1.778 0-.931-.762-1.778-1.778-1.778-.931 0-1.778.762-1.778 1.778.085 1.016.847 1.778 1.778 1.778Z" fill="#DBAA21"/></svg>