<svg width="46" height="32" fill="none" xmlns="http://www.w3.org/2000/svg"><path d="M45.509 0h-4.572c-.846 1.355-2.286 2.286-3.979 2.286H29.17c-2.455 0-4.656 1.016-6.35 2.624a9.03 9.03 0 0 0-6.349-2.624H8.683C6.99 2.286 5.551 1.355 4.704 0H.133v23.196c1.1 3.81 4.571 6.518 8.72 6.518H16.64c1.608 0 3.048.847 3.894 2.117 0 .084 0 .084-.085.169h4.826c0-.085 0-.085-.085-.17.847-1.27 2.286-2.116 3.894-2.116H36.874c4.148 0 7.619-2.793 8.72-6.518V0h-.085ZM16.556 25.482H8.768c-1.693 0-3.132-.932-3.979-2.286V5.503c1.27.677 2.624 1.016 4.148 1.016h7.789c1.608 0 3.047.846 3.894 2.116 0 .085 0 .085-.085.17h.085v17.608c-1.27-.593-2.625-.931-4.064-.931Zm24.381-2.202c-.846 1.355-2.286 2.286-3.979 2.286H29.17c-1.44 0-2.794.339-4.064.931V8.89h.085c0-.085 0-.085-.084-.17.846-1.27 2.285-2.116 3.894-2.116h7.788c1.524 0 2.878-.338 4.148-1.016V23.28Z" fill="#fff"/><path d="M11.73 18.286c.932 0 1.779-.762 1.779-1.778 0-.931-.762-1.778-1.778-1.778-.931 0-1.778.762-1.778 1.778s.762 1.778 1.778 1.778ZM32.98 18.286c.93 0 1.777-.762 1.777-1.778 0-.931-.762-1.778-1.777-1.778-.932 0-1.778.762-1.778 1.778.084 1.016.846 1.778 1.777 1.778Z" fill="#DBAA21"/></svg>