<svg width="46" height="32" fill="none" xmlns="http://www.w3.org/2000/svg"><path d="M45.133 0h-4.624c-.833 1.387-2.313 2.22-3.977 2.22h-7.677a8.87 8.87 0 0 0-6.288 2.59c-1.665-1.573-3.885-2.59-6.29-2.59H8.601c-1.665 0-3.144-.925-3.977-2.22H0v23.121c1.11 3.792 4.532 6.567 8.694 6.567h7.768c1.665 0 3.052.832 3.885 2.127 0 .092 0 .092-.093.185h4.81c0-.093 0-.093-.093-.185.832-1.295 2.22-2.127 3.884-2.127h7.584c4.07 0 7.584-2.775 8.694-6.567V0ZM16.185 25.341H8.416c-1.665 0-3.144-.925-3.977-2.22V5.55a8.561 8.561 0 0 0 4.07 1.017h7.769c1.664 0 3.052.833 3.884 2.128 0 .092 0 .092-.093.185h.093V26.45c-1.203-.74-2.497-1.11-3.977-1.11Zm24.324-2.22c-.833 1.388-2.313 2.22-3.977 2.22h-7.769c-1.48 0-2.775.37-4.07.925V8.694h.093c0-.093 0-.093-.092-.185.832-1.295 2.22-2.128 3.884-2.128h7.861c1.48 0 2.867-.37 4.07-1.017v17.757Z" fill="#000"/><path d="M11.376 18.22c.925 0 1.757-.74 1.757-1.758 0-.924-.74-1.757-1.757-1.757-.925 0-1.758.74-1.758 1.757 0 .925.833 1.758 1.758 1.758ZM32.647 18.22c.925 0 1.758-.74 1.758-1.758 0-.924-.74-1.757-1.758-1.757-.924 0-1.757.74-1.757 1.757 0 .925.74 1.758 1.757 1.758Z" fill="#DBAA21"/></svg>