<svg width="96" height="96" fill="none" xmlns="http://www.w3.org/2000/svg"><rect x=".5" y=".5" width="95" height="95" rx="47.5" stroke="#fff"/><path fill-rule="evenodd" clip-rule="evenodd" d="M55.576 8.313 49.6 7.835l-.819 8.686 5.977.478.164-1.514-4.094-.319.164-2.072 3.848.32.164-1.515-3.848-.319.163-2.072 4.094.32.164-1.515Zm-13.348 2.628c-.082-.558.41-1.036 1.31-1.195.9-.16 1.474.16 1.556.876l1.801-.239c-.246-1.514-1.72-2.39-3.685-2.151-1.883.318-3.193 1.514-2.947 3.108.245 1.275 1.228 1.832 2.784 1.992l.982.08c.983.08 1.556.318 1.638.876.082.638-.41 1.116-1.392 1.275-.9.16-1.72-.16-1.883-1.036l-1.802.24c.328 1.832 1.883 2.629 4.012 2.31 2.13-.239 3.276-1.434 3.03-3.028-.246-1.434-1.474-1.992-3.03-2.152l-.819-.08c-.818-.079-1.473-.238-1.555-.876Zm16.214-2.07 1.802.558-2.13 6.853 3.686 1.116-.492 1.434-5.486-1.594 2.62-8.367Zm13.266 5.578-5.24-2.869-4.34 7.73 5.24 2.869.737-1.355-3.602-1.992 1.064-1.833 3.357 1.833.737-1.355-3.357-1.833 1.064-1.833 3.603 1.992.737-1.354Zm4.831 7.888c.573-.797.41-1.673-.328-2.39-.982-.957-2.374-.797-3.684.557-1.31 1.355-1.31 2.71-.328 3.586.737.638 1.638.797 2.457.24l1.392 1.274c-1.31 1.036-3.358 1.196-4.995-.318-1.72-1.594-1.883-3.985.082-6.057 1.965-2.072 4.421-2.072 6.14-.478 1.475 1.355 1.802 3.267.656 4.861l-1.392-1.275Zm9.17 7.094-3.93-5.977-1.228.797 1.474 2.231-6.223 3.905.9 1.514 6.223-3.904 1.474 2.23 1.31-.796Zm-7.78 3.984 9.417-.08.819 2.232-7.37 5.737-.655-1.833 1.72-1.274-1.065-2.949-2.129.08-.737-1.913Zm5.159 3.825 2.784-2.151v-.08l-3.521.08.737 2.151Zm4.583 12.112c0-1.035-.819-1.912-1.883-1.912-1.065 0-1.965.797-1.965 1.833s.819 1.912 1.883 1.912 1.965-.797 1.965-1.833Zm-2.13 13.867c.328-.797.165-1.434-.327-1.674-.573-.239-1.064.24-1.556.877l-.49.638c-.902 1.275-2.13 1.992-3.44 1.354-1.474-.637-1.965-2.151-1.064-4.144.818-1.912 2.292-2.789 4.094-2.071l-.737 1.673c-.819-.319-1.556.16-1.965 1.036-.41.877-.246 1.594.409 1.833.573.239 1.064-.16 1.638-.956l.573-.797c.9-1.196 1.965-1.754 3.193-1.275 1.474.637 1.965 2.31 1.147 4.064-.82 1.753-2.293 2.55-3.767 1.912l.737-1.593c.655.239 1.228-.08 1.556-.877Zm-4.99 10.757 3.52-4.701-7.124-5.18-3.603 4.781 1.31.877 2.457-3.267 1.72 1.195-2.293 3.028 1.228.877 2.293-2.949 1.72 1.195-2.457 3.268 1.228.876Zm-1.962 2.073-1.392 1.195-4.913-5.34-2.866 2.471-1.064-1.116 4.258-3.745 5.977 6.535Zm-11.716 8.207 5.24-2.948-4.42-7.57-5.241 2.948.737 1.354 3.602-1.992 1.147 1.674-3.276 1.833.737 1.354 3.276-1.833 1.064 1.833-3.603 1.992.737 1.355Zm-9.495-.079c.41.877 1.31 1.275 2.293.956 1.31-.398 1.883-1.593 1.392-3.347-.491-1.753-1.72-2.47-2.948-2.151-.982.239-1.556.956-1.474 1.912l-1.801.478c-.246-1.593.655-3.346 2.866-3.984 2.293-.638 4.421.478 5.24 3.188.82 2.709-.491 4.78-2.784 5.418-1.965.558-3.848-.159-4.585-1.992l1.801-.478Zm-11.136 3.984 7.37-.16-.083-1.514-2.702.08-.163-7.172H48.78l.164 7.172-2.702.08v1.514Zm.654-8.606-4.749 7.89-2.374-.399-1.229-9.085 1.966.399.245 2.072 3.194.637 1.064-1.832 1.883.318Zm-5.977 2.311.41 3.427h.081l1.72-3.028-2.211-.399Zm-13.022-2.391c.819.558 2.047.319 2.62-.558.573-.876.327-2.072-.573-2.55-.82-.558-2.047-.239-2.62.558-.574.797-.328 1.992.573 2.55ZM16.763 70.47c.573.717 1.146.877 1.637.558.492-.319.41-1.036.082-1.753l-.327-.718c-.655-1.434-.655-2.789.573-3.585 1.31-.957 2.948-.479 4.176 1.195 1.228 1.673 1.228 3.347-.246 4.542l-1.064-1.434c.655-.558.655-1.355.082-2.152-.574-.717-1.31-.956-1.802-.637-.491.318-.41.956 0 1.832l.41.877c.573 1.434.49 2.55-.574 3.267-1.31.956-3.03.399-4.176-1.115-1.146-1.594-1.064-3.188.246-4.144l1.065 1.434c-.574.478-.574 1.195-.082 1.833Zm-6.795-9.72 2.293 5.42 8.27-3.348-2.374-5.419-1.474.558 1.637 3.746-1.965.797-1.474-3.427-1.473.558 1.637 3.506-1.965.797-1.638-3.745-1.474.558Zm-.818-2.712-.327-1.832 7.205-1.355-.737-3.666 1.556-.239 1.065 5.499-8.762 1.593ZM8.004 44.093l-.164 5.817 8.925.24.164-5.898h-1.556l-.082 4.065-2.129-.08.082-3.745h-1.556l-.082 3.665-2.129-.08.082-3.984H8.004Zm4.914-7.968c-.983-.08-1.802.399-2.047 1.435-.328 1.275.409 2.39 2.21 2.869 1.884.478 3.03-.08 3.44-1.355.327-.956 0-1.753-.901-2.231l.491-1.754c1.556.638 2.62 2.311 2.047 4.463-.655 2.231-2.702 3.506-5.568 2.71-2.784-.798-3.93-2.87-3.357-5.1.573-1.913 2.129-3.109 4.176-2.79l-.491 1.753Zm2.291-11.157-3.602 6.136 1.31.797 1.392-2.311 6.387 3.586.9-1.594-6.387-3.586 1.31-2.31-1.31-.718Zm7.21 4.862-4.503-8.049 1.637-1.753 8.68 3.666-1.392 1.434-1.966-.876-2.21 2.31 1.064 1.834-1.31 1.434Zm1.064-6.216L20.29 22.18l-.082.08 1.72 3.028 1.555-1.674Zm9.004-9.562c-.983.399-1.392 1.514-.9 2.47.409.957 1.555 1.355 2.537.877.983-.398 1.392-1.514.901-2.47-.41-.956-1.556-1.355-2.538-.877Z" fill="#fff"/><circle cx="48.001" cy="48.056" fill="#D4AB42" r="3.918"/></svg>