<svg width="100" height="103" fill="none" xmlns="http://www.w3.org/2000/svg"><path d="M49.95 2.552c-.097-.393-.195-.59-.49-.786-.294-.196-.687-.294-1.08-.196-.294 0-.588.098-.784.196-.197.099-.393.197-.491.393-.098.196-.196.294-.098.49 0 .197 0 .295.098.393l.294.295c.099.098.295.098.491.196s.393.098.589.098l.785.098c.392.196.785.295 1.08.393.294.098.588.294.883.49.294.197.49.393.589.687.196.295.196.59.294.982 0 .588-.098.981-.294 1.472-.295.392-.59.785-1.08.981-.49.294-1.08.393-1.865.49-.687 0-1.373 0-1.864-.196-.589-.196-.981-.49-1.276-.883-.294-.392-.49-.981-.589-1.57l1.865-.098c0 .294.098.589.294.687.197.196.393.294.687.392.295.099.589.099.883.099.295 0 .59-.099.785-.197.197-.098.393-.294.491-.392.098-.197.197-.393.197-.59a.75.75 0 0 0-.197-.49c-.098-.098-.294-.196-.49-.294a1.96 1.96 0 0 0-.884-.196l-.981-.197a3.6 3.6 0 0 1-1.865-.785c-.588-.392-.785-.981-.883-1.57 0-.49.098-.981.393-1.472.294-.393.687-.785 1.177-.981.491-.295 1.08-.393 1.669-.491.687 0 1.275 0 1.766.196.49.197.883.49 1.178.883.294.393.49.884.49 1.374l-1.766.099ZM53.19 8.93 54.17 0l5.987.687-.196 1.57-4.122-.49-.196 2.158 3.729.393-.098 1.57-3.828-.49-.196 2.158 4.024.491-.098 1.472-5.987-.589ZM60.255 9.814l2.453-8.636 1.767.588-1.963 7.066 3.631.982-.392 1.57-5.496-1.57ZM66.634 11.678l3.73-8.047 5.396 2.552-.588 1.373-3.73-1.766-.883 1.963 3.435 1.57-.687 1.374-3.435-1.57-.883 1.962 3.73 1.767-.688 1.374-5.397-2.552ZM82.826 14.622l-1.57-1.08c.098-.196.196-.392.196-.686v-.687l-.294-.589a1.182 1.182 0 0 0-.49-.49 1.886 1.886 0 0 0-1.178-.393c-.393 0-.785.098-1.178.294-.392.196-.785.589-1.178 1.08-.392.49-.588.981-.686 1.472-.099.49-.099.883.098 1.275.196.393.392.687.785.982.196.098.392.294.588.294.197.098.393.098.688.098.196 0 .392-.098.588-.098.197 0 .393-.196.59-.392l1.57 1.08c-.295.294-.59.588-.982.784-.393.197-.785.295-1.276.393-.392 0-.883 0-1.374-.098-.49-.099-.981-.393-1.374-.687-.687-.491-1.08-.982-1.374-1.669-.294-.687-.392-1.373-.294-2.159.098-.785.49-1.57.981-2.355.59-.785 1.178-1.374 1.865-1.668.687-.295 1.374-.49 2.159-.393.687.098 1.374.393 2.06.785.393.295.786.687 1.08.982.295.392.491.785.59 1.177.097.393.097.884.097 1.276-.294.589-.49.982-.687 1.472ZM85.182 14.72l1.177-1.08 5.005 5.398-1.178 1.08-1.864-2.061-5.3 5.005-1.275-1.276 5.3-5.103-1.865-1.963ZM85.574 26.202l-1.177-1.668 9.126-2.355 1.374 2.06-5.79 7.459-1.08-1.669 4.515-5.593v-.098l-6.968 1.864Zm2.846-2.06 2.65 4.023-1.276.785-2.65-4.024 1.276-.785Z" fill="#fff"/><path d="M96.075 47.105c0-.392 0-.687.196-.981.098-.295.392-.59.589-.785.294-.197.588-.295.981-.393.393 0 .687 0 .981.196.295.098.59.393.785.59.197.294.295.588.393.98 0 .393 0 .687-.196.982-.098.294-.393.589-.59.785-.293.196-.588.294-.98.392-.393 0-.687 0-.982-.196-.294-.098-.589-.392-.785-.589-.196-.196-.392-.687-.392-.981Z" fill="#DFAA25"/><path d="M96.075 70.756c.294.098.686.098.883-.099.196-.196.49-.49.687-.883.098-.294.196-.588.196-.785 0-.196-.098-.392-.196-.589a.766.766 0 0 0-.393-.392c-.098-.098-.294-.098-.392-.098-.099 0-.295.098-.393.196-.098.098-.294.196-.392.294-.099.099-.197.295-.393.491l-.392.785c-.197.295-.491.589-.687.883-.295.295-.491.491-.785.59-.295.097-.59.195-.884.195-.294 0-.687 0-.981-.196a2.68 2.68 0 0 1-1.178-.883c-.294-.393-.392-.883-.392-1.472s.098-1.178.392-1.865a6.802 6.802 0 0 1 .982-1.668c.392-.392.883-.687 1.373-.785.491-.098 1.08-.098 1.669.196l-.687 1.669c-.294-.099-.589-.099-.785 0-.197.098-.49.196-.687.392-.196.196-.295.49-.49.785-.099.295-.197.589-.197.785 0 .295.098.49.196.687.098.197.295.295.49.393.197.098.393.098.492 0 .196-.098.294-.197.49-.393a4.27 4.27 0 0 0 .589-.687l.589-.785c.49-.589.883-1.08 1.472-1.374.49-.294 1.08-.294 1.668 0 .49.197.883.491 1.178.883.294.393.392.884.392 1.473 0 .588-.098 1.177-.294 1.766-.196.589-.589 1.08-.981 1.472a2.346 2.346 0 0 1-1.276.687c-.49.098-.981.098-1.472-.098l.589-1.57ZM89.009 71.05l7.556 4.612-3.14 5.202-1.276-.884 2.16-3.434-1.865-1.178-1.963 3.239-1.276-.786 1.963-3.238-1.865-1.178-2.159 3.533-1.276-.785 3.14-5.103ZM85.181 77.036l6.674 5.888-1.178 1.374-5.594-4.808-2.453 2.944-1.178-1.08 3.73-4.318ZM80.766 82.041l5.691 6.772-4.612 3.925-.981-1.276 3.14-2.65-1.374-1.57-2.846 2.454-.981-1.178 2.846-2.453-1.374-1.668-3.14 2.65-.982-1.178 4.612-3.828ZM71.246 95.388l1.669-.884c.196.197.294.393.49.491.197.098.393.196.59.196h.686c.196 0 .49-.098.687-.294.393-.196.687-.49.883-.883.197-.393.295-.785.197-1.276 0-.49-.197-.981-.491-1.472-.295-.589-.687-.981-.981-1.276-.393-.294-.786-.392-1.178-.49-.393 0-.785.098-1.178.294-.196.098-.392.294-.589.392-.196.197-.294.295-.392.491-.098.196-.098.393-.098.589 0 .196 0 .392.098.687l-1.668.883c-.197-.196-.295-.589-.295-1.08 0-.392.098-.883.196-1.275.099-.393.393-.785.687-1.178.295-.392.687-.687 1.178-.981.687-.393 1.374-.589 2.159-.589.687 0 1.374.196 2.06.687.688.392 1.178 1.08 1.67 1.865.49.883.686 1.668.686 2.453 0 .785-.196 1.472-.589 2.06a4.543 4.543 0 0 1-1.57 1.473c-.49.294-.883.392-1.374.49a3.24 3.24 0 0 1-1.374 0c-.392-.098-.883-.196-1.177-.49-.295-.098-.687-.393-.982-.883ZM70.069 97.547l.49 1.472-6.967 2.257-.49-1.472 2.649-.785-2.257-7.066 1.766-.49 2.257 6.967 2.552-.883ZM59.568 93.032l1.963-.294-1.767 9.225-2.355.294-4.318-8.44 1.963-.294 3.14 6.477h.098l1.276-6.968Zm.687 3.435-4.809.687-.196-1.472 4.71-.687.295 1.472Z" fill="#fff"/><path d="M36.212 93.621c.294.098.589.295.785.589.196.294.393.589.393.883.098.295 0 .687-.099.982a1.526 1.526 0 0 1-.588.785c-.295.196-.59.392-.884.392-.294.098-.687 0-.98-.098a1.526 1.526 0 0 1-.786-.589c-.196-.294-.392-.589-.392-.883-.099-.294 0-.687.098-.981.098-.295.294-.59.588-.785.295-.197.59-.393.884-.393.294 0 .588 0 .981.098Z" fill="#DFAA25"/><path d="M14.72 83.513c-.196.295-.294.59-.294.883 0 .295.196.687.49.982.197.196.393.392.59.49.196.099.392.099.588.099a.75.75 0 0 0 .49-.197c.099-.098.197-.196.197-.392v-.393c0-.196-.098-.294-.196-.49-.098-.197-.196-.295-.294-.491l-.393-.687c-.196-.393-.393-.687-.49-.981-.099-.295-.197-.687-.197-.982 0-.294 0-.589.196-.883.098-.294.295-.589.59-.785.392-.393.882-.589 1.275-.687.49-.098.981 0 1.472.196.49.197.981.59 1.472 1.178.49.49.883 1.08 1.08 1.57.196.589.294 1.08.098 1.57-.099.49-.393.982-.884 1.472l-1.276-1.374c.197-.196.295-.49.393-.687 0-.294 0-.49-.098-.785-.098-.294-.294-.49-.49-.785-.197-.196-.393-.392-.688-.49-.196-.099-.49-.197-.687-.099-.196 0-.392.099-.588.295-.099.098-.197.294-.295.49 0 .197 0 .393.098.59.098.196.197.49.393.784l.49.884c.393.687.59 1.275.59 1.864 0 .589-.197 1.08-.688 1.57-.392.393-.785.59-1.373.687-.491.099-.982 0-1.473-.196-.49-.196-.98-.589-1.472-1.08a4.284 4.284 0 0 1-.98-1.472c-.197-.49-.197-.98-.1-1.471.1-.491.393-.884.688-1.276l1.766 1.08ZM17.468 77.036l-7.36 4.907-3.337-5.005 1.276-.883 2.257 3.435 1.767-1.178-2.061-3.14 1.276-.883 2.159 3.238 1.766-1.178-2.257-3.434 1.276-.884 3.238 5.005ZM13.739 71.05l-8.145 3.631-.785-1.766 6.673-2.944-1.57-3.533 1.472-.59 2.355 5.202ZM11.09 64.966l-8.637 2.257-1.472-5.888 1.472-.295 1.08 3.926 1.963-.491-.884-3.73 1.472-.392.982 3.73 2.06-.59-1.079-4.023 1.472-.392 1.57 5.888ZM3.042 50.638l.098 1.864c-.196.099-.49.099-.687.295-.196.098-.294.294-.49.49l-.295.59c-.098.196-.098.49-.098.686 0 .491.196.883.393 1.178.294.294.589.589 1.08.687.49.196.98.196 1.57.196.588 0 1.177-.196 1.57-.392.392-.197.686-.491.883-.884.196-.392.294-.785.294-1.177 0-.295-.098-.49-.196-.687l-.295-.589c-.098-.196-.294-.294-.49-.393-.196-.098-.393-.196-.687-.196l-.098-1.864c.392 0 .785.098 1.177.294.393.196.785.393 1.08.687.294.294.589.687.785 1.08.196.392.294.98.392 1.471.099.786-.098 1.473-.392 2.16-.294.686-.785 1.177-1.472 1.57-.49.49-1.276.785-2.257.785-.982.098-1.767-.098-2.552-.393a3.835 3.835 0 0 1-1.668-1.374c-.393-.589-.589-1.276-.687-2.06 0-.491 0-.982.098-1.473.098-.49.295-.883.589-1.177.294-.393.589-.687.981-.883.393-.295.785-.393 1.374-.491ZM1.57 48.675 0 48.48l.883-7.262 1.57.196-.294 2.65 7.262.981-.196 1.865-7.36-.982-.295 2.748ZM10.108 41.119l-.589 1.962-7.556-5.593.687-2.355 9.42-.295-.588 1.963-7.262.098v.098l5.888 4.122Zm-3.337-.883 1.374-4.515 1.374.393-1.374 4.514-1.374-.392Z" fill="#fff"/><path d="M23.749 15.898c-.295.196-.589.393-.883.393-.295 0-.687 0-.982-.099a1.526 1.526 0 0 1-.785-.588c-.196-.295-.392-.59-.392-.884 0-.294 0-.687.098-.981.098-.295.294-.589.588-.785.295-.196.59-.393.884-.393.294 0 .687 0 .981.098.294.099.589.295.785.59.196.294.295.588.393.883 0 .294 0 .686-.098.98-.099.295-.295.492-.59.786Z" fill="#DFAA25"/><path d="M51.325 89.009c-20.805 0-37.684-16.88-37.684-37.684 0-20.805 16.88-37.684 37.684-37.684s37.684 16.88 37.684 37.684-16.88 37.684-37.684 37.684Zm0-74.387c-20.216 0-36.703 16.487-36.703 36.703 0 20.216 16.487 36.703 36.703 36.703 20.216 0 36.703-16.487 36.703-36.703 0-20.216-16.487-36.703-36.703-36.703Z" fill="#fff"/></svg>