<svg width="446" height="17" fill="none" xmlns="http://www.w3.org/2000/svg"><path d="M.988 10.195a1.766 1.766 0 0 1-.494-1.182c0-.236.247-.709.494-.945.247-.473.741-.473 1.236-.473.247 0 .74 0 .988.473.494.236.494.709.494 1.182 0 .472-.247.709-.494 1.181-.247.237-.494.237-.988.237-.495 0-.742 0-1.236-.473Zm0 5.437c-.247-.473-.494-.71-.494-1.182 0-.236.247-.71.494-.946.247-.472.741-.709 1.236-.709.247 0 .74.237.988.473.494.236.494.71.494 1.182 0 .473-.247.709-.494 1.182-.247.236-.494.473-.988.473-.495 0-.742-.237-1.236-.473ZM6.671 4.995c-.494-.473-.741-.71-.741-1.182 0-.237.247-.71.494-.946.247-.472.741-.472 1.235-.472.247 0 .741.236.988.472.495.237.742.473.742.946s-.247.945-.494 1.182c-.248.236-.742.472-1.236.472-.247 0-.741-.236-.988-.472Z" fill="#3F3F3F"/><path d="M2.224 16.578c-.495 0-.989-.236-1.483-.472C.247 15.396 0 14.924 0 14.45c0-.473.247-.945.494-1.418.988-.71 1.977-.946 2.965 0 .494.473.741.945.741 1.418s-.247.946-.494 1.418c-.494.473-.988.71-1.482.71Zm-.989-1.418c.742.473 1.236.473 1.73 0 .247 0 .247-.473.247-.709s-.247-.473-.494-.71a1.232 1.232 0 0 0-1.73 0v.71c0 .236 0 .473.247.71Zm.989-4.018c-.495 0-.989-.237-1.483-.473C.247 10.196 0 9.724 0 9.014c0-.472.247-.945.494-1.418.988-.709 1.977-.709 2.965 0 .494.473.741.946.741 1.418 0 .473-.247.946-.494 1.419-.494.472-.988.709-1.482.709ZM1.235 9.96c.742.473 1.236.473 1.73 0 .247-.236.247-.473.247-.946 0-.236-.247-.472-.494-.709-.741-.472-.988-.472-1.73 0v.71c0 .472 0 .709.247.945ZM7.66 5.942c-.494 0-.988-.237-1.235-.71-.494-.472-.741-.945-.741-1.418s.247-.945.494-1.418c.741-.946 1.976-.946 2.965-.236.494.709.74 1.181.74 1.654 0 .473-.246.946-.493 1.418-.494.473-.989.71-1.73.71Zm-.741-1.419c.741.473 1.235.473 1.73 0 .247-.236.247-.472.247-.945 0-.237-.248-.473-.495-.71-.494-.472-.988-.236-1.482.237-.247.236-.494.473-.494.71 0 .236.247.472.494.708ZM17.79 10.195c-.495-.236-.495-.71-.495-1.182 0-.236 0-.473.494-.945.247-.473.741-.473 1.235-.473.247 0 .742.236.989.473.494.236.494.709.494 1.182 0 .472-.247.709-.494 1.181-.247.237-.742.237-1.236.237-.247 0-.74 0-.988-.473Zm0 5.437c-.495-.473-.495-.71-.495-1.182 0-.236 0-.71.494-.946.247-.472.741-.709.988-.709s.742.237.989.473c.494.236.494.71.494 1.182 0 .473-.247.709-.494 1.182 0 .236-.494.473-.989.473-.247 0-.74-.237-.988-.473Zm5.435-10.637c-.247-.473-.495-.71-.495-1.182 0-.237.248-.71.495-.946.247-.472.74-.472 1.235-.472.247 0 .741.236.988.472.494.237.494.71.494 1.182 0 .473-.247.946-.494 1.182s-.74.473-1.235.473c-.247-.237-.494-.473-.988-.71Zm0 5.2a1.766 1.766 0 0 1-.495-1.182c0-.236.248-.709.495-.945.247-.473.74-.473 1.235-.473.247 0 .741.236.988.473.494.236.494.709.494 1.182 0 .472-.247.709-.494 1.181-.247.237-.74.473-1.235.473-.247-.236-.494-.236-.988-.709Z" fill="#3F3F3F"/><path d="M18.777 16.578c-.494 0-.988-.236-1.482-.472-.247-.71-.494-1.182-.494-1.655 0-.473.247-.945.494-1.418.741-.946 1.976-.946 2.965-.237.494.473.741.946.741 1.419 0 .472-.247.945-.494 1.418-.494.71-.988.945-1.73.945Zm-.74-1.418c.74.473 1.235.473 1.729 0 .247 0 .247-.473.247-.709s-.247-.473-.494-.71c-.742-.472-1.236-.472-1.73 0v.71c0 .236 0 .473.247.71Zm6.423-4.018c-.494 0-.988-.237-1.482-.473-.495-.473-.742-.945-.742-1.655 0-.472.247-.945.494-1.418.742-.945 1.977-.945 2.965-.236.494.473.741.945.741 1.418s-.247.946-.494 1.418c-.494.71-.988.946-1.482.946Zm-.741-1.182c.741.473 1.235.473 1.73 0 .246-.236.246-.473.246-.946 0-.236-.247-.472-.494-.709-.741-.472-1.235-.472-1.482 0-.247.237-.494.473-.494.71 0 .472.247.709.494.945Zm-4.942 1.182c-.494 0-.988-.237-1.482-.473-.247-.473-.494-.945-.494-1.655 0-.472.247-.945.494-1.418.741-.945 1.976-.945 2.965-.236.494.709.741 1.182.741 1.654 0 .473-.247.946-.494 1.419-.494.472-.988.709-1.73.709Zm-.74-1.182c.74.473 1.235.473 1.729 0 .247-.236.247-.473.247-.946 0-.236-.247-.472-.494-.709-.742-.472-.989-.472-1.73 0v.71c0 .472 0 .709.247.945Zm6.423-4.018c-.494 0-.988-.237-1.482-.71-.495-.472-.742-.945-.742-1.418s.247-.945.742-1.418c.74-.946 1.976-.946 2.964-.236.494.472.742.945.742 1.418s-.248.945-.495 1.418c-.74.71-1.235.946-1.729.946Zm-.741-1.419c.741.473 1.235.473 1.73 0 .246-.236.246-.472.246-.945 0-.237-.247-.473-.494-.71-.494-.472-1.235-.472-1.482 0-.247.473-.494.71-.494.946 0 .237.247.473.494.71ZM34.589 4.995c-.494-.237-.494-.71-.494-1.182 0-.237.247-.71.494-.946.247-.472.741-.472 1.235-.472.247 0 .741.236.989.472.247.237.494.473.494.946s-.247.945-.495 1.182c-.247.236-.74.472-1.235.472-.247 0-.741-.236-.988-.472Zm0 5.2c-.494-.236-.494-.71-.494-1.182 0-.236.247-.71.494-.945.247-.473.741-.473 1.235-.473.247 0 .741.236.989.473.494.236.494.709.494 1.181 0 .473-.247.71-.495 1.182-.247.237-.74.473-1.235.473-.247-.236-.741-.236-.988-.709Zm0 5.437c-.494-.237-.494-.71-.494-1.182 0-.237.247-.71.494-.946.247-.473.494-.709.988-.709.247 0 .741.236.988.473.495.236.495.709.495 1.182s-.248.709-.495 1.182c-.247.236-.74.472-1.235.472 0 0-.494-.236-.741-.472Zm5.435-5.437a1.766 1.766 0 0 1-.494-1.182c0-.236.247-.71.494-.945.248-.473.742-.473 1.236-.473.247 0 .741.236.988.473.494.236.494.709.494 1.181 0 .473-.247.71-.494 1.182-.247.237-.741.473-1.235.473-.247-.236-.494-.236-.989-.709Z" fill="#3F3F3F"/><path d="M35.578 16.577c-.494 0-.988-.236-1.482-.473-.494-.472-.741-.945-.741-1.418s.247-.945.494-1.418c.74-.946 1.976-.946 2.965-.237.494.473.74.946.74 1.419 0 .473-.246.945-.493 1.418-.248.473-.742.71-1.483.71Zm-.741-1.418c.741.473 1.235.473 1.73 0 .246-.237.246-.473.246-.946 0-.236-.247-.472-.494-.709a1.232 1.232 0 0 0-1.73 0c-.246.237-.246.473-.246.71 0 .472.247.708.494.945Zm6.424-4.019c-.494 0-.989-.236-1.483-.472-.494-.473-.74-.946-.74-1.418 0-.473.246-.946.493-1.419.742-.945 1.977-.945 2.965-.236.494.473.741.945.741 1.418s-.247.946-.494 1.418c-.494.473-.988.71-1.482.71Zm-.989-1.181c.742.472 1.483.472 1.73 0 .247-.237.247-.473.247-.946 0-.236-.247-.473-.494-.709-.741-.473-1.236-.473-1.483 0-.247.236-.247.473-.247.71 0 .472 0 .708.248.945Zm-4.694 1.181c-.494 0-.988-.236-1.482-.472-.494-.473-.741-.946-.741-1.418 0-.473.247-.946.494-1.419.74-.945 1.976-.945 2.965-.236.494.473.74.945.74 1.418s-.246.946-.493 1.418c-.248.473-.742.71-1.483.71Zm-.741-1.181c.741.472 1.235.472 1.73 0 .246-.237.246-.473.246-.946 0-.236-.247-.473-.494-.709-.74-.473-1.235-.473-1.73 0-.246.236-.246.473-.246.71 0 .472.247.708.494.945Zm.741-4.019c-.494 0-.988-.236-1.482-.472-.494-.473-.741-.946-.741-1.419 0-.472.247-.945.494-1.418.74-.945 1.976-.945 2.965-.236.494.472.74.945.74 1.418s-.246.945-.493 1.418c-.248.473-.742.71-1.483.71Zm-.741-1.418c.741.473 1.235.473 1.73 0 .246-.236.246-.473.246-.945 0-.237-.247-.473-.494-.71-.74-.472-1.235-.472-1.73 0 0 .473-.246.71-.246.946s.247.473.494.709ZM51.144 4.995c-.494-.237-.494-.71-.494-1.182 0-.237.247-.71.494-.946.247-.472.741-.472 1.235-.472.248 0 .742.236.989.472.494.237.494.71.494 1.182 0 .473-.247.946-.494 1.182s-.742.473-1.236.473c-.247-.237-.494-.473-.988-.71Zm5.683 5.2c-.494-.236-.494-.71-.494-1.182 0-.236.247-.71.494-.945.247-.473.74-.473 1.235-.473.247 0 .741.236.988.473.495.236.495.709.495 1.181 0 .473-.248.71-.495 1.182-.247.237-.74.473-1.235.473-.247-.236-.741-.236-.988-.71Z" fill="#3F3F3F"/><path d="M57.815 11.14c-.494 0-.988-.236-1.482-.472-.495-.473-.742-.946-.742-1.418 0-.473.247-.946.495-1.419.74-.945 1.976-.945 2.964-.236.494.473.742.945.742 1.418s-.248.946-.495 1.418c-.247.473-.74.71-1.482.71Zm-.741-1.181c.74.472 1.235.472 1.73 0 .246-.237.246-.473.246-.946 0-.236-.247-.473-.494-.709-.494-.473-1.235-.473-1.482 0-.247.236-.247.473-.247.71 0 .472 0 .708.247.945ZM52.379 5.94c-.494 0-.988-.236-1.482-.472-.494-.473-.741-.946-.741-1.419 0-.472.247-.945.494-1.418.741-.945 1.977-.945 2.965-.236.494.472.741.945.741 1.418s-.247.945-.494 1.418c-.494.473-.989.71-1.483.71Zm-.74-1.418c.74.473 1.234.473 1.729 0 .247-.236.247-.473.247-.945 0-.237-.247-.473-.494-.71-.742-.472-1.236-.472-1.73 0-.247.237-.247.473-.247.71 0 .472.247.709.494.945ZM67.945 4.995c-.494-.237-.494-.71-.494-1.182 0-.237.247-.71.494-.946.247-.472.741-.472 1.235-.472.247 0 .741.236.988.472.495.237.495.71.495 1.182 0 .473-.248.946-.495 1.182s-.74.473-1.235.473c-.247-.237-.494-.473-.988-.71Zm5.683 5.2c-.495-.236-.495-.71-.495-1.182 0-.236.247-.71.495-.945.246-.473.74-.473 1.235-.473.247 0 .741.236.988.473.494.236.494.709.494 1.181 0 .473-.247.71-.494 1.182-.247.237-.741.473-1.235.473-.247-.236-.742-.236-.989-.71Z" fill="#3F3F3F"/><path d="M74.616 11.14c-.494 0-.989-.236-1.483-.472-.494-.473-.74-.946-.74-1.418 0-.473.246-.946.493-1.419.741-.945 1.977-.945 2.965-.236.741.473.988.945.988 1.418s-.247.946-.494 1.418c-.494.473-.988.71-1.73.71Zm-.742-1.181c.742.472 1.236.472 1.73 0 .247-.237.247-.473.247-.946 0-.236-.247-.473-.494-.709-.494-.473-1.235-.473-1.483 0-.247.236-.247.473-.247.71-.247.472 0 .708.248.945ZM69.18 5.94c-.494 0-.988-.236-1.482-.472-.494-.473-.741-.946-.741-1.419 0-.472.247-.945.494-1.418.74-.945 1.976-.945 2.965-.236.494.472.74.945.74 1.418s-.246.945-.493 1.418c-.495.473-.989.71-1.483.71Zm-.988-1.418c.741.473 1.235.473 1.73 0 .246-.236.246-.473.246-.945 0-.237-.247-.473-.494-.71-.74-.472-1.235-.472-1.73 0-.246.237-.246.473-.246.71.247.472.247.709.494.945ZM84.745 10.195c-.495-.236-.495-.71-.495-1.182 0-.236.248-.71.495-.945.247-.473.74-.473 1.235-.473.247 0 .741.236.988.473.494.236.494.709.494 1.181 0 .473-.247.71-.494 1.182-.247.237-.74.473-1.235.473-.247-.236-.741-.236-.988-.709Zm0 5.437c-.495-.237-.495-.71-.495-1.182 0-.237.248-.71.495-.946.247-.473.74-.709.988-.709.247 0 .741.236.988.473.494.236.494.709.494 1.182s-.247.709-.494 1.182c-.247.236-.741.472-1.235.472 0 0-.494-.236-.741-.472ZM90.18 4.995c-.494-.237-.494-.71-.494-1.182 0-.237.247-.71.494-.946.247-.472.741-.472 1.235-.472.248 0 .742.236.989.472.494.237.494.71.494 1.182 0 .473-.247.946-.494 1.182s-.741.473-1.236.473c-.247-.237-.494-.473-.988-.71Zm0 5.2c-.494-.236-.494-.71-.494-1.182 0-.236.247-.71.494-.945.247-.473.741-.473 1.235-.473.248 0 .742.236.989.473.494.236.494.709.494 1.181 0 .473-.247.71-.494 1.182-.247.237-.741.473-1.236.473-.247-.236-.494-.236-.988-.709Z" fill="#3F3F3F"/><path d="M85.734 16.577c-.494 0-.988-.236-1.483-.473-.494-.472-.74-.945-.74-1.418s.246-.945.493-1.418c.742-.946 1.977-.946 2.965-.237.494.473.742.946.742 1.419 0 .473-.248.945-.495 1.418s-.74.71-1.482.71Zm-.741-1.418c.74.473 1.235.473 1.73 0 .246-.237.246-.473.246-.946 0-.236-.247-.472-.494-.709-.741-.473-1.235-.473-1.73 0-.246.237-.246.473-.246.71 0 .472.247.708.494.945Zm6.424-4.019c-.495 0-.989-.236-1.483-.472-.494-.473-.741-.946-.741-1.418 0-.473.247-.946.494-1.419.741-.945 1.977-.945 2.965-.236.494.473.741.945.741 1.418s-.247.946-.494 1.418c-.494.473-.988.71-1.483.71Zm-.742-1.181c.742.472 1.236.472 1.73 0 .247-.237.247-.473.247-.946 0-.236-.247-.473-.494-.709-.742-.473-1.236-.473-1.483 0-.247.236-.247.473-.247.71-.247.472 0 .708.247.945Zm-4.941 1.181c-.494 0-.988-.236-1.483-.472-.494-.473-.74-.946-.74-1.418 0-.473.246-.946.493-1.419.742-.945 1.977-.945 2.965-.236.494.473.742.945.742 1.418s-.248.946-.495 1.418c-.247.473-.74.71-1.482.71Zm-.741-1.181c.74.472 1.235.472 1.73 0 .246-.237.246-.473.246-.946 0-.236-.247-.473-.494-.709-.741-.473-.988-.473-1.73 0-.246.236-.246.473-.246.71 0 .472.247.708.494.945Zm6.424-4.019c-.495 0-.989-.236-1.483-.472-.494-.473-.741-.946-.741-1.419 0-.472.247-.945.494-1.418.741-.945 1.977-.945 2.965-.236.494.472.741.945.741 1.418s-.247.945-.494 1.418c-.494.473-.988.71-1.483.71Zm-.742-1.418c.742.473 1.236.473 1.73 0 .247-.236.247-.473.247-.945 0-.237-.247-.473-.494-.71-.494-.472-1.236-.472-1.483 0-.247.237-.247.473-.247.71-.247.472 0 .709.247.945ZM106.982 4.995c-.494-.237-.494-.71-.494-1.182 0-.237.247-.71.494-.946.247-.472.741-.472 1.235-.472.247 0 .742.236.989.472.494.237.494.71.494 1.182 0 .473-.247.946-.494 1.182-.247.237-.742.473-1.236.473-.247-.236-.494-.473-.988-.71Z" fill="#3F3F3F"/><path d="M108.217 5.94c-.494 0-.988-.236-1.482-.472-.494-.473-.741-.946-.741-1.419 0-.472.247-.945.494-1.418.741-.945 1.976-.945 2.965-.236.494.472.741.945.741 1.418s-.247.945-.494 1.418c-.494.473-.989.71-1.483.71Zm-.988-1.418c.741.473 1.235.473 1.729 0 .248-.236.248-.473.248-.945 0-.237-.248-.473-.495-.71-.741-.472-1.235-.472-1.729 0-.247.237-.247.473-.247.71.247.472.247.709.494.945ZM118.1 4.995c-.495-.237-.495-.71-.495-1.182 0-.237.248-.71.495-.946.247-.472.741-.472 1.235-.472.247 0 .741.236.988.472.494.237.741.473.741.946s-.247.945-.494 1.182c-.247.236-.741.472-1.235.472-.494 0-.741-.236-1.235-.472Zm0 5.2c-.495-.236-.495-.71-.495-1.182 0-.236.248-.71.495-.945.247-.473.741-.473 1.235-.473.247 0 .741.236.988.473.494.236.741.709.741.945 0 .473-.247.71-.494 1.182-.247.236-.741.473-1.235.473-.494 0-.741 0-1.235-.473Zm0 5.437c-.495-.237-.495-.71-.495-1.182 0-.237.248-.71.495-.946.247-.473.741-.709 1.235-.709.247 0 .741.236.988.473.494.473.741.709.741 1.182s-.247.709-.494 1.182c-.247.236-.741.472-1.235.472-.494 0-.741-.236-1.235-.472Zm5.682-5.437c-.494-.236-.494-.71-.494-1.182 0-.236.247-.71.494-.945.247-.473.741-.473 1.236-.473.247 0 .741.236.988.473.494.236.494.709.494 1.181 0 .473-.247.71-.494 1.182-.247.237-.741.473-1.235.473-.248-.236-.742-.236-.989-.709Z" fill="#3F3F3F"/><path d="M119.335 16.577c-.494 0-.988-.236-1.482-.473-.495-.472-.742-.945-.742-1.418s.247-.945.494-1.418c.742-.946 1.977-.946 2.965-.237.494.473.742.946.742 1.419 0 .473-.248.945-.495 1.418-.494.473-.988.71-1.482.71Zm-.741-1.418c.741.473 1.235.473 1.729 0 .247-.237.247-.473.247-.946 0-.236-.247-.472-.494-.709-.741-.473-1.235-.473-1.729 0-.247.237-.247.473-.247.71 0 .472 0 .708.494.945Zm6.177-4.019c-.495 0-.989-.236-1.483-.472-.494-.473-.741-.946-.741-1.418 0-.473.247-.946.494-1.419.741-.945 1.977-.945 2.965-.236.494.473.741.945.741 1.418s-.247.946-.494 1.418c-.247.473-.741.71-1.482.71Zm-.742-1.181c.742.472 1.236.472 1.73 0 .247-.237.247-.473.247-.946 0-.236-.247-.473-.494-.709-.741-.473-1.236-.473-1.483 0-.247.236-.247.473-.247.71 0 .472 0 .708.247.945Zm-4.694 1.181c-.494 0-.988-.236-1.482-.472-.495-.473-.742-.946-.742-1.418 0-.473.247-.946.494-1.419.742-.945 1.977-.945 2.965-.236.494.473.742.945.742 1.418s-.248.946-.495 1.418c-.494.473-.988.71-1.482.71Zm-.741-1.181c.741.472 1.235.472 1.729 0 .247-.237.247-.473.247-.946 0-.236-.247-.473-.494-.709-.741-.473-.988-.473-1.729 0-.247.236-.247.473-.247.71 0 .472 0 .708.494.945Zm.741-4.019c-.494 0-.988-.236-1.482-.472-.495-.473-.742-.946-.742-1.419 0-.472.247-.945.494-1.418.742-.945 1.977-.945 2.965-.236.494.472.742.945.742 1.418s-.248.945-.495 1.418c-.494.473-.988.71-1.482.71Zm-.741-1.418c.741.473 1.235.473 1.729 0 .247-.236.247-.473.247-.945 0-.237-.247-.473-.494-.71-.741-.472-1.235-.472-1.729 0-.247.237-.247.473-.247.71 0 .472 0 .709.494.945ZM134.9 10.195c-.494-.236-.494-.71-.494-1.182 0-.236.247-.71.494-.945.247-.473.742-.473 1.236-.473.247 0 .741.236.988.473.494.236.494.709.494 1.181 0 .473-.247.71-.494 1.182-.247.237-.741.473-1.235.473-.247-.236-.494-.236-.989-.709Zm0 5.437c-.494-.237-.494-.71-.494-1.182 0-.237.247-.71.494-.946.247-.473.742-.709 1.236-.709.247 0 .741.236.988.473.494.236.494.709.494 1.182s-.247.709-.494 1.182c-.247.236-.741.472-1.235.472-.247 0-.494-.236-.989-.472Zm5.683-10.637c-.494-.237-.494-.71-.494-1.182 0-.237.247-.71.494-.946.247-.472.741-.472 1.235-.472.247 0 .742.236.989.472.247.237.494.473.494.946s-.247.945-.494 1.182c-.247.236-.742.472-1.236.472-.247 0-.741-.236-.988-.472Zm0 5.2c-.494-.236-.494-.71-.494-1.182 0-.236.247-.71.494-.945.247-.473.741-.473 1.235-.473.247 0 .742.236.989.473.247.236.494.709.494.945 0 .473-.247.71-.494 1.182-.247.236-.742.473-1.236.473-.247 0-.741 0-.988-.473Z" fill="#3F3F3F"/><path d="M136.136 16.577c-.494 0-.989-.236-1.483-.473-.494-.472-.741-.945-.741-1.418s.247-.945.494-1.418c.741-.946 1.977-.946 2.965-.237.494.473.741.946.741 1.419 0 .473-.247.945-.494 1.418-.494.473-.988.71-1.482.71Zm-.989-1.418c.742.473 1.236.473 1.73 0 .247-.237.247-.473.247-.946 0-.236-.247-.472-.494-.709a1.232 1.232 0 0 0-1.73 0c-.247.237-.247.473-.247.71.247.472.247.708.494.945Zm6.424-4.019c-.494 0-.988-.236-1.482-.472-.494-.473-.741-.946-.741-1.418 0-.473.247-.946.494-1.419.741-.945 1.976-.945 2.965-.236.494.473.741.945.741 1.418s-.247.946-.494 1.418c-.247.473-.741.71-1.483.71Zm-.741-1.181c.741.472 1.235.472 1.73 0 .247-.237.247-.473.247-.946 0-.236-.247-.473-.494-.709-.742-.473-1.236-.473-1.483 0-.247.236-.247.473-.247.71-.247.472 0 .708.247.945Zm-4.694 1.181c-.494 0-.989-.236-1.483-.472-.494-.473-.741-.946-.741-1.418 0-.473.247-.946.494-1.419.741-.945 1.977-.945 2.965-.236.494.473.741.945.741 1.418s-.247.946-.494 1.418c-.494.473-.988.71-1.482.71Zm-.989-1.181c.742.472 1.236.472 1.73 0 .247-.237.247-.473.247-.946 0-.236-.247-.473-.494-.709-.741-.473-.988-.473-1.73 0-.247.236-.247.473-.247.71.247.472.247.708.494.945Zm6.424-4.019c-.494 0-.988-.236-1.482-.472-.494-.473-.741-.946-.741-1.419 0-.472.247-.945.494-1.418.741-.945 1.976-.945 2.965-.236.494.472.741.945.741 1.418s-.247.945-.494 1.418-.989.71-1.483.71Zm-.741-1.418c.741.473 1.235.473 1.73 0 .247-.236.247-.473.247-.945 0-.237-.247-.473-.494-.71-.742-.472-1.236-.472-1.483 0-.247.237-.247.473-.247.71-.247.472 0 .709.247.945ZM151.948 10.195c-.494-.236-.494-.71-.494-1.182 0-.236.247-.709.494-.945.247-.473.741-.473 1.235-.473.247 0 .741.236.988.473.495.236.495.709.495 1.182 0 .472-.248.709-.495 1.181-.247.237-.741.473-1.235.473-.247-.236-.741-.236-.988-.709Zm0 5.437c-.494-.237-.494-.71-.494-1.182 0-.236.247-.71.494-.946.247-.472.494-.709.988-.709.247 0 .741.237.988.473.494.236.494.71.494 1.182 0 .473-.247.709-.494 1.182-.247.236-.741.473-1.235.473 0 0-.494-.237-.741-.473Zm5.435-10.637c-.494-.237-.494-.71-.494-1.182 0-.237.247-.71.494-.946.247-.472.742-.472 1.236-.472.247 0 .741.236.988.472.494.237.494.71.494 1.182 0 .473-.247.946-.494 1.182s-.741.473-1.235.473c-.247-.237-.495-.473-.989-.71Z" fill="#3F3F3F"/><path d="M152.937 16.577c-.494 0-.988-.236-1.482-.472-.495-.473-.742-.946-.742-1.419 0-.472.247-.945.495-1.418.741-.945 1.976-.945 2.964-.236.495.473.742.945.742 1.418s-.247.946-.495 1.418c-.247.473-.741.71-1.482.71Zm-.741-1.418c.741.473 1.235.473 1.729 0 .247-.236.247-.473.247-.945 0-.237-.247-.473-.494-.71a1.231 1.231 0 0 0-1.729 0c-.247.237-.247.473-.247.71 0 .472.247.709.494.945Zm.741-4.018c-.494 0-.988-.237-1.482-.473-.495-.473-.742-.946-.742-1.418 0-.473.247-.946.495-1.419.741-.945 1.976-.945 2.964-.236.495.473.742.946.742 1.418 0 .473-.247.946-.495 1.418-.247.473-.741.71-1.482.71Zm-.741-1.182c.741.473 1.235.473 1.729 0 .247-.237.247-.473.247-.946 0-.236-.247-.472-.494-.709-.741-.473-.988-.473-1.729 0-.247.237-.247.473-.247.71 0 .472.247.708.494.945Zm6.424-4.019c-.495 0-.989-.236-1.483-.472-.494-.473-.741-.946-.741-1.419 0-.472.247-.945.494-1.418.741-.945 1.977-.945 2.965-.236.494.472.741.945.741 1.418s-.247.945-.494 1.418c-.494.473-.988.71-1.482.71Zm-.742-1.418c.742.473 1.236.473 1.73 0 .247-.236.247-.473.247-.945 0-.237-.247-.473-.494-.71-.741-.472-1.235-.472-1.483 0-.247.237-.247.473-.247.71-.247.472-.247.709.247.945ZM168.502 10.195a1.766 1.766 0 0 1-.494-1.182c0-.236.247-.71.494-.945.248-.473.742-.473 1.236-.473.247 0 .741.236.988.473.494.236.494.709.494 1.181 0 .473-.247.71-.494 1.182-.247.237-.741.473-1.235.473-.247-.236-.494-.236-.989-.709Zm0 5.437c-.247-.473-.494-.71-.494-1.182 0-.237.247-.71.494-.946.495-.473.742-.709 1.236-.709.247 0 .741.236.988.473.494.236.494.709.494 1.182s-.247.709-.494 1.182c-.247.236-.741.472-1.235.472-.247 0-.494-.236-.989-.472Zm5.683-10.637c-.494-.237-.494-.71-.494-1.182 0-.237.247-.71.494-.946.247-.472.741-.472 1.235-.472.248 0 .742.236.989.472.494.237.494.71.494 1.182 0 .473-.247.946-.494 1.182s-.741.473-1.236.473c-.247-.237-.494-.473-.988-.71Zm0 5.2c-.494-.236-.494-.71-.494-1.182 0-.236.247-.71.494-.945.247-.473.741-.473 1.235-.473.248 0 .742.236.989.473.494.236.494.709.494 1.181 0 .473-.247.71-.494 1.182-.247.237-.741.473-1.236.473-.247-.236-.494-.236-.988-.709Z" fill="#3F3F3F"/><path d="M169.738 16.577c-.494 0-.988-.236-1.483-.473-.494-.472-.741-.945-.741-1.418s.247-.945.494-1.418c.742-.946 1.977-.946 2.965-.237.494.473.741.946.741 1.419 0 .473-.247.945-.494 1.418-.494.473-.988.71-1.482.71Zm-.741-1.418c.741.473 1.235.473 1.729 0 .247-.237.247-.473.247-.946 0-.236-.247-.472-.494-.709-.741-.473-1.235-.473-1.729 0-.248.237-.248.473-.248.71 0 .472.248.708.495.945Zm6.423-4.019c-.494 0-.988-.236-1.482-.472-.494-.473-.741-.946-.741-1.418 0-.473.247-.946.494-1.419.741-.945 1.976-.945 2.965-.236.494.473.741.945.741 1.418s-.247.946-.494 1.418c-.494.473-.988.71-1.483.71Zm-.988-1.181c.741.472 1.235.472 1.73 0 .247-.237.247-.473.247-.946 0-.236-.247-.473-.494-.709-.742-.473-1.236-.473-1.483 0-.247.236-.247.473-.247.71 0 .472 0 .708.247.945Zm-4.694 1.181c-.494 0-.988-.236-1.483-.472-.494-.473-.741-.946-.741-1.418 0-.473.247-.946.494-1.419.742-.945 1.977-.945 2.965-.236.494.473.741.945.741 1.418s-.247.946-.494 1.418c-.494.473-.988.71-1.482.71Zm-.741-1.181c.494.472 1.235.472 1.482 0 .247-.237.247-.473.247-.946 0-.236-.247-.473-.494-.709-.741-.473-.988-.473-1.73 0-.247.236-.247.473-.247.71.247.472.495.708.742.945Zm6.423-4.019c-.494 0-.988-.236-1.482-.472-.494-.473-.741-.946-.741-1.419 0-.472.247-.945.494-1.418.741-.945 1.976-.945 2.965-.236.494.472.741.945.741 1.418s-.247.945-.494 1.418c-.494.473-.988.71-1.483.71Zm-.988-1.418c.741.473 1.235.473 1.73 0 .247-.236.247-.473.247-.945 0-.237-.247-.473-.494-.71-.495-.472-1.236-.472-1.483 0-.247.237-.247.473-.247.71 0 .472 0 .709.247.945ZM185.304 4.995c-.494-.237-.494-.71-.494-1.182 0-.237.247-.71.494-.946.247-.472.741-.472 1.235-.472.247 0 .741.236.988.472.494.237.494.71.494 1.182 0 .473-.247.946-.494 1.182s-.741.473-1.235.473c-.247-.237-.494-.473-.988-.71Zm0 5.2c-.494-.236-.494-.71-.494-1.182 0-.236.247-.71.494-.945.247-.473.741-.473 1.235-.473.247 0 .741.236.988.473.494.236.494.709.494 1.181 0 .473-.247.71-.494 1.182-.247.237-.741.473-1.235.473-.247-.236-.494-.236-.988-.709Zm0 5.437c-.494-.237-.494-.71-.494-1.182 0-.237.247-.71.494-.946.247-.473.741-.709 1.235-.709.247 0 .741.236.988.473.494.236.494.709.494 1.182s-.247.709-.494 1.182c-.247.236-.741.472-1.235.472-.247 0-.494-.236-.988-.472Zm5.682-5.437a1.293 1.293 0 0 1-.741-1.182c0-.236.247-.71.494-.945.247-.473.741-.473 1.236-.473.247 0 .741.236.988.473.494.236.494.709.494 1.181 0 .473-.247.71-.494 1.182-.247.237-.741.473-1.235.473 0-.236-.495-.236-.742-.709Z" fill="#3F3F3F"/><path d="M186.539 16.577c-.494 0-.988-.236-1.482-.473-.494-.472-.742-.945-.742-1.418s.248-.945.495-1.418c.741-.946 1.976-.946 2.964-.237.495.473.742.946.742 1.419 0 .473-.247.945-.495 1.418-.494.473-.988.71-1.482.71Zm-.988-1.418c.741.473 1.235.473 1.729 0 .247 0 .494-.473.494-.71 0-.236-.247-.472-.494-.708a1.231 1.231 0 0 0-1.729 0c-.247.236-.247.472-.247.709 0 .236 0 .473.247.709Zm6.424-4.019c-.495 0-.989-.236-1.483-.472-.494-.473-.741-.946-.741-1.418 0-.473.247-.946.494-1.419.741-.945 1.977-.945 2.965-.236.494.473.741.945.741 1.418s-.247.946-.494 1.418c-.247.473-.741.71-1.482.71Zm-.742-1.181c.742.472 1.236.472 1.73 0 .247-.237.247-.473.247-.946 0-.236-.247-.473-.494-.709-.741-.473-1.236-.473-1.483 0-.247.236-.247.473-.247.71-.247.472 0 .708.247.945Zm-4.694 1.181c-.494 0-.988-.236-1.482-.472-.494-.473-.742-.946-.742-1.418 0-.473.248-.946.495-1.419.741-.945 1.976-.945 2.964-.236.495.473.742.945.742 1.418s-.247.946-.495 1.418c-.494.473-.988.71-1.482.71Zm-.988-1.181c.741.472 1.235.472 1.729 0 .247-.237.494-.473.494-.946 0-.236-.247-.473-.494-.709-.741-.473-1.235-.473-1.729 0-.247.236-.247.473-.247.71 0 .472 0 .708.247.945Zm.988-4.019c-.494 0-.988-.236-1.482-.472-.494-.473-.742-.946-.742-1.419 0-.472.248-.945.495-1.418.741-.945 1.976-.945 2.964-.236.495.472.742.945.742 1.418s-.247.945-.495 1.418c-.494.473-.988.71-1.482.71Zm-.988-1.418c.741.473 1.235.473 1.729 0 .247-.236.494-.473.494-.71 0-.235-.247-.472-.494-.708-.741-.473-1.235-.473-1.729 0-.247.236-.247.473-.247.709s0 .473.247.709ZM202.103 4.995c-.494-.237-.494-.71-.494-1.182 0-.237.247-.71.494-.946.247-.472.741-.472 1.235-.472.247 0 .742.236.989.472.494.237.494.71.494 1.182 0 .473-.247.946-.494 1.182s-.742.473-1.236.473c-.247-.237-.741-.473-.988-.71Zm5.683 5.2c-.495-.236-.495-.71-.495-1.182 0-.236.248-.71.495-.945.247-.473.741-.473 1.235-.473.247 0 .741.236.988.473.494.236.494.709.494 1.181 0 .473-.247.71-.494 1.182-.247.237-.741.473-1.235.473-.494-.236-.741-.236-.988-.71Z" fill="#3F3F3F"/><path d="M208.775 11.14c-.494 0-.988-.236-1.483-.472-.494-.473-.741-.946-.741-1.418 0-.473.247-.946.494-1.419.742-.945 1.977-.945 2.965-.236.494.473.741.945.741 1.418s-.247.946-.494 1.418c-.494.473-.988.71-1.482.71Zm-.741-1.181c.741.472 1.235.472 1.729 0 0-.237.247-.473.247-.946 0-.236-.247-.473-.494-.709-.494-.473-1.235-.473-1.482 0-.247.236-.494.473-.494.71 0 .472.247.708.494.945Zm-4.942-4.019c-.494 0-.988-.236-1.482-.472-.494-.473-.741-.946-.741-1.419 0-.472.247-.945.494-1.418.741-.945 1.976-.945 2.965-.236.741.472.988.945.988 1.418s-.247.945-.494 1.418c-.494.473-.989.71-1.73.71Zm-.741-1.418c.741.473 1.235.473 1.73 0 .247-.236.247-.473.247-.945 0-.237-.247-.473-.495-.71-.741-.472-1.235-.472-1.729 0-.247.237-.247.473-.247.71.247.472.247.709.494.945ZM218.904 4.995c-.494-.237-.494-.71-.494-1.182 0-.237.247-.71.494-.946.247-.472.742-.472 1.236-.472.247 0 .741.236.988.472.494.237.494.71.494 1.182 0 .473-.247.946-.494 1.182s-.741.473-1.235.473c-.247-.237-.742-.473-.989-.71Zm5.436 5.2c-.494-.236-.494-.71-.494-1.182 0-.236.247-.71.494-.945.247-.473.741-.473 1.235-.473.247 0 .741.236.989.473.494.236.494.709.494 1.181 0 .473-.247.71-.494 1.182-.248.237-.742.473-1.236.473-.247-.236-.494-.236-.988-.71Z" fill="#3F3F3F"/><path d="M225.576 11.14c-.494 0-.988-.236-1.482-.472-.494-.473-.741-.946-.741-1.418 0-.473.247-.946.494-1.419.741-.945 1.976-.945 2.965-.236.494.473.741.945.741 1.418s-.247.946-.494 1.418c-.495.473-.989.71-1.483.71Zm-.988-1.181c.741.472 1.235.472 1.729 0 .247-.237.247-.473.247-.946 0-.236-.247-.473-.494-.709-.494-.473-1.235-.473-1.482 0-.247.236-.247.473-.247.71 0 .472 0 .708.247.945Zm-4.694-4.019c-.495 0-.989-.236-1.483-.472-.494-.473-.741-.946-.741-1.419 0-.472.247-.945.494-1.418.741-.945 1.977-.945 2.965-.236.494.472.741.945.741 1.418s-.247.945-.494 1.418-.741.71-1.482.71Zm-.742-1.418c.742.473 1.236.473 1.73 0 .247-.236.247-.473.247-.945 0-.237-.247-.473-.494-.71-.741-.472-1.236-.472-1.73 0-.247.237-.247.473-.247.71 0 .472.247.709.494.945ZM235.459 10.195c-.495-.236-.495-.71-.495-1.182 0-.236.247-.71.495-.945.247-.473.741-.473 1.235-.473.247 0 .741.236.988.473.494.236.494.709.494 1.181 0 .473-.247.71-.494 1.182-.247.237-.741.473-1.235.473-.247-.236-.494-.236-.988-.709Zm0 5.437c-.495-.237-.495-.71-.495-1.182 0-.237.247-.71.495-.946.494-.473.741-.709 1.235-.709.247 0 .741.236.988.473.494.236.494.709.494 1.182s-.247.709-.494 1.182c-.247.236-.741.472-1.235.472-.247 0-.494-.236-.988-.472Zm5.682-10.637c-.494-.237-.494-.71-.494-1.182 0-.237.247-.71.494-.946.247-.472.741-.472 1.236-.472.247 0 .741.236.988.472.494.237.494.71.494 1.182 0 .473-.247.946-.494 1.182s-.741.473-1.236.473c-.247-.237-.741-.473-.988-.71Zm0 5.2c-.494-.236-.494-.71-.494-1.182 0-.236.247-.71.494-.945.247-.473.741-.473 1.236-.473.247 0 .741.236.988.473.494.236.494.709.494 1.181 0 .473-.247.71-.494 1.182-.247.237-.741.473-1.236.473-.247-.236-.741-.236-.988-.709Z" fill="#3F3F3F"/><path d="M236.694 16.577c-.494 0-.988-.236-1.483-.473-.494-.472-.741-.945-.741-1.418s.247-.945.494-1.418c.742-.946 1.977-.946 2.965-.237.494.473.741.946.741 1.419 0 .473-.247.945-.494 1.418-.494.473-.988.71-1.482.71Zm-.741-1.418c.741.473 1.235.473 1.729 0 .247-.237.247-.473.247-.946 0-.236-.247-.472-.494-.709-.741-.473-1.235-.473-1.729 0-.247.237-.247.473-.247.71 0 .472.247.708.494.945Zm6.176-4.019c-.494 0-.988-.236-1.482-.472-.494-.473-.741-.946-.741-1.418 0-.473.247-.946.494-1.419.741-.945 1.977-.945 2.965-.236.494.473.741.945.741 1.418s-.247.946-.494 1.418c-.247.473-.741.71-1.483.71Zm-.741-1.181c.741.472 1.236.472 1.73 0 .247-.237.247-.473.247-.946 0-.236-.247-.473-.494-.709-.742-.473-1.236-.473-1.483 0-.247.236-.247.473-.247.71 0 .472 0 .708.247.945Zm-4.694 1.181c-.494 0-.988-.236-1.483-.472-.494-.473-.741-.946-.741-1.418 0-.473.247-.946.494-1.419.742-.945 1.977-.945 2.965-.236.494.473.741.945.741 1.418s-.247.946-.494 1.418c-.494.473-.988.71-1.482.71Zm-.741-1.181c.494.472 1.235.472 1.482 0 .247-.237.247-.473.247-.946 0-.236-.247-.473-.494-.709-.741-.473-.988-.473-1.729 0-.248.236-.248.473-.248.71.247.472.495.708.742.945Zm6.176-4.019c-.494 0-.988-.236-1.482-.472-.494-.473-.741-.946-.741-1.419 0-.472.247-.945.494-1.418.741-.945 1.977-.945 2.965-.236.494.472.741.945.741 1.418s-.247.945-.494 1.418-.741.71-1.483.71Zm-.741-1.418c.741.473 1.236.473 1.73 0 .247-.236.247-.473.247-.945 0-.237-.247-.473-.494-.71-.494-.472-1.236-.472-1.483 0-.247.237-.247.473-.247.71 0 .472 0 .709.247.945ZM257.942 4.995c-.494-.237-.494-.71-.494-1.182 0-.237.247-.71.494-.946.247-.472.742-.472 1.236-.472.247 0 .741.236.988.472.494.237.494.71.494 1.182 0 .473-.247.946-.494 1.182-.247.237-.741.473-1.235.473-.247-.236-.742-.473-.989-.71Z" fill="#3F3F3F"/><path d="M258.931 5.942c-.494 0-.989-.237-1.483-.473-.494-.71-.494-1.182-.494-1.655 0-.473.247-.945.494-1.418.741-.946 1.977-.946 2.965-.236.494.472.741.945.741 1.418s-.247.945-.494 1.418c-.494.71-.988.946-1.729.946Zm-.742-1.419c.742.473 1.236.473 1.73 0 .247-.236.247-.472.247-.945 0-.237-.247-.473-.494-.71-.741-.472-1.235-.472-1.73 0-.247.237-.247.473-.247.71 0 .473.247.709.494.945ZM269.059 4.995c-.494-.237-.494-.71-.494-1.182 0-.237.247-.71.494-.946.247-.472.741-.472 1.235-.472.248 0 .742.236.989.472.494.237.494.71.494 1.182 0 .473-.247.946-.494 1.182s-.741.473-1.236.473c-.247-.237-.741-.473-.988-.71Zm0 5.2c-.494-.236-.494-.71-.494-1.182 0-.236.247-.71.494-.945.247-.473.741-.473 1.235-.473.248 0 .742.236.989.473.494.236.494.709.494 1.181 0 .473-.247.71-.494 1.182-.247.237-.741.473-1.236.473-.247-.236-.741-.236-.988-.71Zm0 5.437c-.494-.237-.494-.71-.494-1.182 0-.237.247-.71.494-.946.247-.473.741-.473 1.235-.473.248 0 .742.237.989.473.494.237.494.71.494 1.182 0 .473-.247.71-.494 1.182-.247.236-.741.473-1.236.473-.247-.237-.741-.473-.988-.71Zm5.436-5.437c-.494-.236-.494-.71-.494-1.182 0-.236.247-.71.494-.945.247-.473.741-.473 1.235-.473.247 0 .741.236.988.473.494.236.494.709.494 1.181 0 .473-.247.71-.494 1.182-.247.237-.741.473-1.235.473-.247-.236-.494-.236-.988-.71Z" fill="#3F3F3F"/><path d="M270.048 16.577c-.494 0-.988-.236-1.482-.473-.494-.472-.741-.945-.741-1.418s.247-.945.494-1.418c.741-.946 1.976-.946 2.965-.237.494.473.741.946.741 1.419 0 .473-.247.945-.494 1.418s-.741.71-1.483.71Zm-.741-1.418c.741.473 1.235.473 1.73 0 .247-.237.247-.473.247-.946 0-.236-.247-.472-.494-.709-.742-.473-1.236-.473-1.73 0-.247.237-.247.473-.247.71 0 .472.247.708.494.945Zm6.424-4.019c-.494 0-.988-.236-1.482-.472-.495-.473-.742-.946-.742-1.418 0-.473.247-.946.494-1.419.742-.945 1.977-.945 2.965-.236.494.473.742.945.742 1.418s-.248.946-.495 1.418c-.494.473-.988.71-1.482.71Zm-.741-1.181c.741.472 1.235.472 1.729 0 .247-.237.247-.473.247-.946 0-.236-.247-.473-.494-.709-.741-.473-1.235-.473-1.482 0-.247.236-.247.473-.247.71-.247.472 0 .708.247.945Zm-4.942 1.181c-.494 0-.988-.236-1.482-.472-.494-.473-.741-.946-.741-1.418 0-.473.247-.946.494-1.419.741-.945 1.976-.945 2.965-.236.494.473.741.945.741 1.418s-.247.946-.494 1.418c-.247.473-.741.71-1.483.71Zm-.741-1.181c.741.472 1.235.472 1.73 0 .247-.237.247-.473.247-.946 0-.236-.247-.473-.494-.709-.742-.473-.989-.473-1.73 0-.247.236-.247.473-.247.71 0 .472.247.708.494.945Zm.741-4.019c-.494 0-.988-.236-1.482-.472-.494-.473-.741-.946-.741-1.419 0-.472.247-.945.494-1.418.741-.945 1.976-.945 2.965-.236.494.472.741.945.741 1.418s-.247.945-.494 1.418-.741.71-1.483.71Zm-.741-1.418c.741.473 1.235.473 1.73 0 .247-.236.247-.473.247-.945 0-.237-.247-.473-.494-.71-.742-.472-1.236-.472-1.73 0-.247.237-.247.473-.247.71 0 .472.247.709.494.945ZM285.86 10.195c-.494-.236-.494-.71-.494-1.182 0-.236.247-.71.494-.945.247-.473.741-.473 1.235-.473.247 0 .741.236.988.473.495.236.495.709.495 1.181 0 .473-.247.71-.495 1.182-.247.237-.741.473-1.235.473-.247-.236-.741-.236-.988-.71Zm0 5.437c-.494-.237-.494-.71-.494-1.182 0-.237.247-.71.494-.946.247-.473.741-.473 1.235-.473.247 0 .741.237.988.473.495.237.495.71.495 1.182 0 .473-.247.71-.495 1.182-.247.236-.741.473-1.235.473-.247-.237-.741-.473-.988-.71Zm5.435-10.637c-.494-.237-.494-.71-.494-1.182 0-.237.247-.71.494-.946.247-.472.742-.472 1.236-.472.247 0 .741.236.988.472.494.237.494.473.494.946s-.247.945-.494 1.182c-.247.236-.741.472-1.235.472-.247 0-.495-.236-.989-.472Zm0 5.2c-.494-.236-.494-.71-.494-1.182 0-.236.247-.71.494-.945.247-.473.742-.473 1.236-.473.247 0 .741.236.988.473.494.236.494.709.494 1.181 0 .473-.247.71-.494 1.182-.247.237-.741.473-1.235.473-.247-.236-.495-.236-.989-.71Z" fill="#3F3F3F"/><path d="M286.849 16.577c-.494 0-.988-.236-1.482-.473-.494-.472-.742-.945-.742-1.418s.248-.945.495-1.418c.741-.946 1.976-.946 2.964-.237.495.473.742.946.742 1.419 0 .473-.247.945-.494 1.418-.248.473-.989.71-1.483.71Zm-.741-1.418c.741.473 1.235.473 1.729 0 .247-.237.247-.473.247-.946 0-.236-.247-.472-.494-.709a1.231 1.231 0 0 0-1.729 0c-.247.237-.247.473-.247.71 0 .472.247.708.494.945Zm6.424-4.019c-.494 0-.989-.236-1.483-.472-.494-.473-.741-.946-.741-1.418 0-.473.247-.946.494-1.419.741-.945 1.977-.945 2.965-.236.494.473.741.945.741 1.418s-.247.946-.494 1.418c-.494.473-.988.71-1.482.71Zm-.989-1.181c.742.472 1.236.472 1.73 0 .247-.237.247-.473.247-.946 0-.236-.247-.473-.494-.709-.741-.473-1.236-.473-1.483 0-.247.236-.247.473-.247.71 0 .472 0 .708.247.945Zm-4.694 1.181c-.494 0-.988-.236-1.482-.472-.494-.473-.742-.946-.742-1.418 0-.473.248-.946.495-1.419.741-.945 1.976-.945 2.964-.236.495.473.742.945.742 1.418s-.247.946-.494 1.418c-.248.473-.989.71-1.483.71Zm-.741-1.181c.741.472 1.235.472 1.729 0 .247-.237.247-.473.247-.946 0-.236-.247-.473-.494-.709-.741-.473-.988-.473-1.729 0-.247.236-.247.473-.247.71 0 .472.247.708.494.945Zm6.424-4.019c-.494 0-.989-.236-1.483-.472-.494-.473-.741-.946-.741-1.419 0-.472.247-.945.494-1.418.741-.945 1.977-.945 2.965-.236.494.472.741.945.741 1.418s-.247.945-.494 1.418c-.494.473-.988.71-1.482.71Zm-.989-1.418c.742.473 1.236.473 1.73 0 .247-.236.247-.473.247-.945 0-.237-.247-.473-.494-.71-.741-.472-1.236-.472-1.483 0-.247.237-.247.473-.247.71 0 .472 0 .709.247.945ZM302.909 8.54c-.494-.237-.494-.71-.494-1.182 0-.237.247-.71.494-.946.247-.472.741-.472 1.235-.472.247 0 .741.236.988.472.494.237.494.71.494 1.182 0 .473-.247.71-.494 1.182-.247.236-.741.473-1.235.473-.247-.237-.494-.473-.988-.71Zm0 5.2c-.494-.236-.494-.71-.494-1.182 0-.236.247-.709.494-.945.247-.473.741-.473 1.235-.473.247 0 .741.236.988.473.494.236.494.709.494 1.181 0 .473-.247.71-.494 1.182-.247.237-.741.473-1.235.473-.247-.236-.494-.236-.988-.709Zm5.682-10.637c-.494-.236-.494-.71-.494-1.182 0-.236.247-.709.494-.945.247-.473.741-.473 1.236-.473.247 0 .741.236.988.473.494.236.494.709.494 1.182 0 .472-.247.945-.494 1.181-.247.237-.741.473-1.235.473-.248-.236-.742-.236-.989-.709Z" fill="#3F3F3F"/><path d="M304.144 14.688c-.494 0-.988-.236-1.482-.473-.495-.472-.742-.945-.742-1.418s.247-.945.495-1.418c.741-.946 1.976-.946 2.964-.237.495.473.742.946.742 1.419 0 .472-.247.945-.494 1.418-.495.473-.989.71-1.483.71Zm-.741-1.182c.741.473 1.235.473 1.729 0 .247-.236.247-.473.247-.945 0-.237-.247-.473-.494-.71a1.231 1.231 0 0 0-1.729 0c-.247.237-.247.473-.247.71 0 .472 0 .709.494.945Zm.741-4.018c-.494 0-.988-.237-1.482-.473-.495-.473-.742-.945-.742-1.418s.247-.946.495-1.418c.741-.946 1.976-.946 2.964-.237.495.473.742.946.742 1.418 0 .473-.247.946-.494 1.419-.495.472-.989.709-1.483.709Zm-.741-1.418c.741.472 1.235.472 1.729 0 .247-.237.247-.473.247-.946 0-.236-.247-.473-.494-.71-.741-.472-.988-.472-1.729 0-.247.237-.247.474-.247.71 0 .473 0 .71.494.946Zm6.177-4.019c-.494 0-.989-.236-1.483-.473-.494-.472-.741-.945-.741-1.418s.247-.945.494-1.418c.741-.946 1.977-.946 2.965-.237.494.473.741.946.741 1.419 0 .472-.247.945-.494 1.418s-.741.71-1.482.71Zm-.741-1.182c.741.473 1.235.473 1.729 0 .247-.236.247-.473.247-.945 0-.237-.247-.473-.494-.71-.741-.472-1.235-.472-1.482 0-.248.237-.248.473-.248.71-.247.472 0 .709.248.945ZM319.708 8.54c-.494-.237-.494-.71-.494-1.182 0-.237.247-.71.494-.946.248-.472.742-.472 1.236-.472.247 0 .741.236.988.472.494.237.494.71.494 1.182 0 .473-.247.71-.494 1.182-.247.236-.741.473-1.235.473-.247-.237-.741-.473-.989-.71Zm0 5.2c-.494-.236-.494-.71-.494-1.182 0-.236.247-.709.494-.945.248-.473.742-.473 1.236-.473.247 0 .741.236.988.473.494.236.494.709.494 1.181 0 .473-.247.71-.494 1.182-.247.237-.741.473-1.235.473-.247-.236-.741-.236-.989-.709Zm5.683-10.637c-.494-.236-.494-.71-.494-1.182 0-.236.247-.709.494-.945.247-.473.741-.473 1.235-.473.248 0 .742.236.989.473.494.236.494.709.494 1.182 0 .472-.247.945-.494 1.181-.247.237-.741.473-1.236.473-.247-.236-.741-.236-.988-.709Zm0 5.437c-.494-.237-.494-.71-.494-1.182 0-.237.247-.71.494-.946.247-.472.741-.472 1.235-.472.248 0 .742.236.989.472.494.237.494.71.494 1.182 0 .473-.247.71-.494 1.182-.247.236-.741.473-1.236.473-.247-.237-.741-.473-.988-.71Z" fill="#3F3F3F"/><path d="M320.698 14.688c-.494 0-.989-.236-1.483-.473-.247-.472-.494-.945-.494-1.418s.247-.945.494-1.418c.742-.946 1.977-.946 2.965-.237.494.473.741.946.741 1.419 0 .472-.247.945-.494 1.418-.494.473-.988.71-1.729.71Zm-.741-1.182c.741.473 1.235.473 1.729 0 .247-.236.247-.473.247-.945 0-.237-.247-.473-.494-.71-.741-.472-1.235-.472-1.73 0-.247.237-.247.473-.247.71.247.472.247.709.495.945Zm6.423-4.018c-.494 0-.988-.237-1.482-.473-.494-.473-.741-.945-.741-1.418s.247-.946.494-1.418c.741-.946 1.976-.946 2.965-.237.494.473.741.946.741 1.418 0 .473-.247.946-.494 1.419-.247.472-.988.709-1.483.709Zm-.741-1.418c.741.472 1.236.472 1.73 0 .247-.237.247-.473.247-.946 0-.236-.247-.473-.494-.71-.742-.472-1.236-.472-1.483 0-.247.237-.247.474-.247.71-.247.473 0 .71.247.946Zm-4.941 1.418c-.494 0-.989-.237-1.483-.473-.494-.473-.741-.945-.741-1.418s.247-.946.494-1.418c.742-.946 1.977-.946 2.965-.237.494.473.741.946.741 1.418 0 .473-.247.946-.494 1.419-.247.472-.741.709-1.482.709Zm-.741-1.418c.741.472 1.235.472 1.729 0 .247-.237.247-.473.247-.946 0-.236-.247-.473-.494-.71-.741-.472-.988-.472-1.73 0-.247.237-.247.474-.247.71.247.473.247.71.495.946Zm6.423-4.019c-.494 0-.988-.236-1.482-.473-.494-.472-.741-.945-.741-1.418s.247-.945.494-1.418c.741-.946 1.976-.946 2.965-.237.494.473.741.946.741 1.419 0 .472-.247.945-.494 1.418-.494.473-.988.71-1.483.71Zm-.741-1.182c.741.473 1.236.473 1.73 0 .247-.236.247-.473.247-.945 0-.237-.247-.473-.494-.71-.495-.472-1.236-.472-1.483 0-.247.237-.247.473-.247.71-.247.472 0 .709.247.945ZM336.509 3.103c-.494-.236-.494-.71-.494-1.182 0-.236.247-.709.494-.945.247-.473.741-.473 1.236-.473.247 0 .741.236.988.473.494.236.494.709.494 1.182 0 .472-.247.945-.494 1.181-.247.237-.741.473-1.235.473-.248-.236-.742-.236-.989-.709Zm0 5.437c-.494-.237-.494-.71-.494-1.182 0-.237.247-.71.494-.946.247-.472.741-.472 1.236-.472.247 0 .741.236.988.472.494.237.494.71.494 1.182 0 .473-.247.71-.494 1.182-.247.236-.741.473-1.235.473-.248-.237-.742-.473-.989-.71Zm0 5.2c-.494-.236-.494-.71-.494-1.182 0-.236.247-.709.494-.945.247-.473.741-.473 1.236-.473.247 0 .741.236.988.473.494.236.494.709.494 1.181 0 .473-.247.71-.494 1.182-.247.237-.741.473-1.235.473-.248-.236-.742-.236-.989-.709Zm5.436-5.2c-.494-.237-.494-.71-.494-1.182 0-.237.247-.71.494-.946.247-.472.741-.472 1.235-.472.247 0 .741.236.988.472.495.237.495.71.495 1.182 0 .473-.248.71-.495 1.182-.247.236-.741.473-1.235.473-.247-.237-.494-.473-.988-.71Z" fill="#3F3F3F"/><path d="M337.499 14.688c-.495 0-.989-.236-1.483-.473-.494-.472-.741-.945-.741-1.418s.247-.945.494-1.418c.741-.946 1.977-.946 2.965-.237.494.473.741.946.741 1.419 0 .472-.247.945-.494 1.418s-.741.71-1.482.71Zm-.742-1.182c.742.473 1.236.473 1.73 0 .247-.236.247-.473.247-.945 0-.237-.247-.473-.494-.71a1.232 1.232 0 0 0-1.73 0c-.247.237-.247.473-.247.71 0 .472.247.709.494.945Zm6.424-4.018c-.494 0-.988-.237-1.482-.473-.494-.473-.741-.945-.741-1.418s.247-.946.494-1.418c.741-.946 1.976-.946 2.965-.237.494.473.741.946.741 1.418 0 .473-.247.946-.494 1.419-.494.472-.989.709-1.483.709Zm-.741-1.418c.741.472 1.235.472 1.73 0 .247-.237.247-.473.247-.946 0-.236-.248-.473-.495-.71-.741-.472-1.235-.472-1.482 0-.247.237-.247.474-.247.71-.247.473-.247.71.247.946Zm-4.941 1.418c-.495 0-.989-.237-1.483-.473-.494-.473-.741-.945-.741-1.418s.247-.946.494-1.418c.741-.946 1.977-.946 2.965-.237.494.473.741.946.741 1.418 0 .473-.247.946-.494 1.419-.247.472-.741.709-1.482.709Zm-.742-1.418c.742.472 1.236.472 1.73 0 .247-.237.247-.473.247-.946 0-.236-.247-.473-.494-.71-.741-.472-1.236-.472-1.73 0-.247.237-.247.474-.247.71 0 .473.247.71.494.946Zm.742-4.019c-.495 0-.989-.236-1.483-.473-.494-.472-.741-.945-.741-1.418s.247-.945.494-1.418c.741-.946 1.977-.946 2.965-.237.494.473.741.946.741 1.419 0 .472-.247.945-.494 1.418s-.741.71-1.482.71Zm-.742-1.182c.742.473 1.236.473 1.73 0 .247-.236.247-.473.247-.945 0-.237-.247-.473-.494-.71-.741-.472-1.236-.472-1.73 0-.247.237-.247.473-.247.71 0 .472.247.709.494.945ZM353.064 3.103c-.494-.236-.494-.71-.494-1.182 0-.236.247-.709.494-.945.247-.473.741-.473 1.235-.473.247 0 .742.236.989.473.494.236.494.709.494 1.182 0 .472-.247.945-.494 1.181-.247.237-.742.473-1.236.473-.247-.236-.494-.236-.988-.709Zm5.683 5.437c-.247-.473-.495-.71-.495-1.182 0-.237.248-.71.495-.946.247-.472.741-.472 1.235-.472.247 0 .741.236.988.472.494.237.494.71.494 1.182 0 .473-.247.71-.494 1.182-.247.236-.741.473-1.235.473-.247-.237-.494-.473-.988-.71Z" fill="#3F3F3F"/><path d="M359.982 9.488c-.494 0-.988-.237-1.482-.473-.494-.473-.741-.946-.741-1.418 0-.473.247-.946.494-1.419.741-.945 1.977-.945 2.965-.236.494.473.741.946.741 1.418 0 .473-.247.946-.494 1.419-.494.472-.988.709-1.483.709Zm-.988-1.419c.741.473 1.236.473 1.73 0 .247-.236.247-.472.247-.945 0-.236-.247-.473-.494-.71-.495-.472-1.236-.472-1.483 0-.247.237-.247.474-.247.71 0 .473 0 .71.247.945ZM354.3 4.051c-.494 0-.988-.236-1.483-.473-.494-.472-.741-.945-.741-1.418s.247-.945.494-1.418c.742-.946 1.977-.946 2.965-.237.494.473.741.946.741 1.419 0 .472-.247.945-.494 1.418-.494.473-.988.71-1.482.71Zm-.741-1.182c.741.473 1.235.473 1.729 0 .247-.236.247-.473.247-.945 0-.237-.247-.473-.494-.71-.741-.472-1.235-.472-1.729 0-.248.237-.248.473-.248.71 0 .472.248.709.495.945ZM369.864 3.103c-.494-.236-.494-.71-.494-1.182 0-.236.247-.709.494-.945.247-.473.741-.473 1.236-.473.247 0 .741.236.988.473.494.236.494.709.494 1.182 0 .472-.247.945-.494 1.181-.247.237-.741.473-1.235.473-.248-.236-.495-.236-.989-.709Zm5.683 5.437c-.494-.237-.494-.71-.494-1.182 0-.237.247-.71.494-.946.247-.472.741-.472 1.235-.472.247 0 .741.236.989.472.494.237.494.71.494 1.182 0 .473-.247.71-.494 1.182-.248.236-.742.473-1.236.473-.247-.237-.741-.473-.988-.71Z" fill="#3F3F3F"/><path d="M376.536 9.488c-.494 0-.988-.237-1.482-.473-.494-.473-.742-.946-.742-1.418 0-.473.248-.946.495-1.419.741-.945 1.976-.945 2.964-.236.495.473.742.946.742 1.418 0 .473-.247.946-.494 1.419-.248.472-.742.709-1.483.709Zm-.741-1.419c.741.473 1.235.473 1.729 0 .247-.236.247-.472.247-.945 0-.236-.247-.473-.494-.71-.494-.472-1.235-.472-1.482 0-.247.237-.247.474-.247.71-.247.473 0 .71.247.945Zm-4.694-4.018c-.495 0-.989-.236-1.483-.473-.494-.472-.741-.945-.741-1.418s.247-.945.494-1.418c.741-.946 1.977-.946 2.965-.237.494.473.741.946.741 1.419 0 .472-.247.945-.494 1.418-.494.473-.988.71-1.482.71Zm-.989-1.182c.742.473 1.236.473 1.73 0 .247-.236.247-.473.247-.945 0-.237-.247-.473-.494-.71-.742-.472-1.236-.472-1.73 0-.247.237-.247.473-.247.71.247.472.247.709.494.945ZM386.665 8.54c-.494-.237-.494-.71-.494-1.182 0-.237.247-.71.494-.946.247-.472.741-.472 1.235-.472.247 0 .742.236.989.472.494.237.494.71.494 1.182 0 .473-.247.71-.494 1.182-.247.236-.742.473-1.236.473-.247-.237-.741-.473-.988-.71Zm0 5.2c-.494-.236-.494-.71-.494-1.182 0-.236.247-.709.494-.945.247-.473.741-.473 1.235-.473.247 0 .742.236.989.473.494.236.494.709.494 1.181 0 .473-.247.71-.494 1.182-.247.237-.742.473-1.236.473-.247-.236-.741-.236-.988-.709Zm5.683-10.637c-.494-.236-.494-.71-.494-1.182 0-.236.247-.709.494-.945.247-.473.741-.473 1.235-.473.247 0 .741.236.988.473.494.236.494.709.494 1.182 0 .472-.247.945-.494 1.181-.247.237-.741.473-1.235.473-.494-.236-.741-.236-.988-.709Zm0 5.437c-.494-.237-.494-.71-.494-1.182 0-.237.247-.71.494-.946.247-.472.741-.472 1.235-.472.247 0 .741.236.988.472.494.237.494.71.494 1.182 0 .473-.247.71-.494 1.182-.247.236-.741.473-1.235.473-.494-.237-.741-.473-.988-.71Z" fill="#3F3F3F"/><path d="M387.654 14.688c-.494 0-.988-.236-1.482-.473-.494-.472-.741-.945-.741-1.418s.247-.945.494-1.418c.741-.946 1.976-.946 2.965-.237.494.473.741.946.741 1.419 0 .472-.247.945-.494 1.418s-.742.71-1.483.71Zm-.741-1.182c.741.473 1.235.473 1.73 0 .247-.236.247-.473.247-.945 0-.237-.247-.473-.494-.71-.742-.472-1.236-.472-1.73 0-.247.237-.247.473-.247.71.247.472.247.709.494.945Zm6.424-4.018c-.494 0-.988-.237-1.482-.473-.495-.473-.742-.945-.742-1.418s.247-.946.494-1.418c.742-.946 1.977-.946 2.965-.237.494.473.741.946.741 1.418 0 .473-.247.946-.494 1.419-.494.472-.988.709-1.482.709Zm-.741-1.418c.741.472 1.235.472 1.729 0 .247-.237.247-.473.247-.946 0-.236-.247-.473-.494-.71-.741-.472-1.235-.472-1.482 0-.247.237-.247.474-.247.71-.247.473 0 .71.247.946Zm-4.942 1.418c-.494 0-.988-.237-1.482-.473-.494-.473-.741-.945-.741-1.418s.247-.946.494-1.418c.741-.946 1.976-.946 2.965-.237.494.473.741.946.741 1.418 0 .473-.247.946-.494 1.419-.247.472-.742.709-1.483.709Zm-.741-1.418c.741.472 1.235.472 1.73 0 .247-.237.247-.473.247-.946 0-.236-.247-.473-.494-.71-.742-.472-.989-.472-1.73 0-.247.237-.247.474-.247.71.247.473.247.71.494.946Zm6.424-4.019c-.494 0-.988-.236-1.482-.473-.495-.472-.742-.945-.742-1.418s.247-.945.494-1.418c.742-.946 1.977-.946 2.965-.237.494.473.741.946.741 1.419 0 .472-.247.945-.494 1.418-.494.473-.988.71-1.482.71Zm-.741-1.182c.741.473 1.235.473 1.729 0 .247-.236.247-.473.247-.945 0-.237-.247-.473-.494-.71-.494-.472-1.235-.472-1.482 0-.247.237-.247.473-.247.71-.247.472 0 .709.247.945ZM408.902 3.103c-.494-.236-.494-.71-.494-1.182 0-.236.247-.709.494-.945.247-.473.742-.473 1.236-.473.247 0 .741.236.988.473.494.236.494.709.494 1.182 0 .472-.247.945-.494 1.181-.247.237-.741.473-1.235.473-.247-.236-.495-.236-.989-.709Z" fill="#3F3F3F"/><path d="M410.138 4.051c-.494 0-.989-.236-1.483-.473-.494-.472-.741-.945-.741-1.418s.247-.945.494-1.418c.741-.946 1.977-.946 2.965-.237.494.473.741.946.741 1.419 0 .472-.247.945-.494 1.418-.494.473-.988.71-1.482.71Zm-.989-1.182c.742.473 1.236.473 1.73 0 .247-.236.247-.473.247-.945 0-.237-.247-.473-.494-.71-.741-.472-1.236-.472-1.73 0-.247.237-.247.473-.247.71.247.472.247.709.494.945ZM420.02 3.103c-.495-.236-.495-.71-.495-1.182 0-.236.247-.709.495-.945.247-.473.741-.473 1.235-.473.247 0 .741.236.988.473.494.236.494.709.494 1.182 0 .472-.247.945-.494 1.181-.247.237-.741.473-1.235.473-.247-.236-.494-.236-.988-.709Zm0 5.437c-.495-.237-.495-.71-.495-1.182 0-.237.247-.71.495-.946.247-.472.741-.472 1.235-.472.247 0 .741.236.988.472.494.237.494.71.494 1.182 0 .473-.247.71-.494 1.182-.247.236-.741.473-1.235.473-.247-.237-.494-.473-.988-.71Zm0 5.2c-.495-.236-.495-.71-.495-1.182 0-.236.247-.709.495-.945.247-.473.741-.473 1.235-.473.247 0 .741.236.988.473.494.236.494.709.494 1.181 0 .473-.247.71-.494 1.182-.247.237-.741.473-1.235.473-.247-.236-.494-.236-.988-.709Zm5.682-5.2c-.494-.237-.494-.71-.494-1.182 0-.237.247-.71.494-.946.247-.472.741-.472 1.236-.472.247 0 .741.236.988.472.494.237.494.71.494 1.182 0 .473-.247.71-.494 1.182-.247.236-.741.473-1.235.473-.248-.237-.742-.473-.989-.71Z" fill="#3F3F3F"/><path d="M421.255 14.688c-.494 0-.988-.236-1.482-.473-.494-.472-.741-.945-.741-1.418s.247-.945.494-1.418c.741-.946 1.976-.946 2.965-.237.494.473.741.946.741 1.419 0 .472-.247.945-.494 1.418-.494.473-.989.71-1.483.71Zm-.741-1.182c.741.473 1.235.473 1.73 0 .247-.236.247-.473.247-.945 0-.237-.247-.473-.494-.71-.742-.472-1.236-.472-1.73 0-.247.473-.247.71-.247.946s.247.473.494.71Zm6.177-4.018c-.494 0-.988-.237-1.483-.473-.494-.473-.741-.945-.741-1.418s.247-.946.494-1.418c.742-.946 1.977-.946 2.965-.237.494.473.741.946.741 1.418 0 .473-.247.946-.494 1.419-.247.472-.741.709-1.482.709Zm-.741-1.418c.741.472 1.235.472 1.729 0 .247-.237.247-.473.247-.946 0-.236-.247-.473-.494-.71-.741-.472-1.235-.472-1.482 0-.247.237-.247.474-.247.71 0 .473 0 .71.247.946Zm-4.695 1.418c-.494 0-.988-.237-1.482-.473-.494-.473-.741-.945-.741-1.418s.247-.946.494-1.418c.741-.946 1.976-.946 2.965-.237.494.473.741.946.741 1.418 0 .473-.247.946-.494 1.419-.494.472-.989.709-1.483.709Zm-.741-1.418c.741.472 1.235.472 1.73 0 .247-.237.247-.473.247-.946 0-.236-.247-.473-.494-.71-.742-.472-.989-.472-1.73 0-.247.474-.247.71-.247.946 0 .237.247.473.494.71Zm.741-4.019c-.494 0-.988-.236-1.482-.473-.494-.472-.741-.945-.741-1.418s.247-.945.494-1.418c.741-.946 1.976-.946 2.965-.237.494.473.741.946.741 1.419 0 .472-.247.945-.494 1.418-.494.473-.989.71-1.483.71Zm-.741-1.182c.741.473 1.235.473 1.73 0 .247-.236.247-.473.247-.945 0-.237-.247-.473-.494-.71-.742-.472-1.236-.472-1.73 0-.247.237-.247.473-.247.71 0 .472.247.709.494.945ZM436.82 8.54c-.494-.237-.494-.71-.494-1.182 0-.237.247-.71.494-.946.247-.472.742-.472 1.236-.472.247 0 .741.236.988.472.494.237.494.71.494 1.182 0 .473-.247.71-.494 1.182-.247.236-.741.473-1.235.473-.247-.237-.494-.473-.989-.71Zm0 5.2c-.494-.236-.494-.71-.494-1.182 0-.236.247-.709.494-.945.247-.473.742-.473 1.236-.473.247 0 .741.236.988.473.494.236.494.709.494 1.181 0 .473-.247.71-.494 1.182-.247.237-.741.473-1.235.473-.247-.236-.494-.236-.989-.709Zm5.683-10.637c-.494-.236-.494-.71-.494-1.182 0-.236.247-.709.494-.945.247-.473.741-.473 1.236-.473.247 0 .741.236.988.473.494.236.494.709.494 1.182 0 .472-.247.945-.494 1.181-.247.237-.741.473-1.236.473-.247-.236-.741-.236-.988-.709Zm0 5.437c-.494-.237-.494-.71-.494-1.182 0-.237.247-.71.494-.946.247-.472.741-.472 1.236-.472.247 0 .741.236.988.472.494.237.494.71.494 1.182 0 .473-.247.71-.494 1.182-.247.236-.741.473-1.236.473-.247-.237-.741-.473-.988-.71Z" fill="#3F3F3F"/><path d="M438.056 14.688c-.494 0-.988-.236-1.482-.473-.494-.472-.741-.945-.741-1.418s.247-.945.494-1.418c.741-.946 1.976-.946 2.965-.237.494.473.741.946.741 1.419 0 .472-.247.945-.494 1.418-.494.473-.989.71-1.483.71Zm-.988-1.182c.741.473 1.235.473 1.729 0 .248-.236.248-.473.248-.945 0-.237-.248-.473-.495-.71a1.231 1.231 0 0 0-1.729 0c-.247.237-.247.473-.247.71.247.472.247.709.494.945Zm6.424-4.018c-.494 0-.988-.237-1.483-.473-.494-.473-.741-.945-.741-1.418s.247-.946.494-1.418c.742-.946 1.977-.946 2.965-.237.494.473.741.946.741 1.418 0 .473-.247.946-.494 1.419-.247.472-.741.709-1.482.709Zm-.741-1.418c.741.472 1.235.472 1.729 0 .247-.237.247-.473.247-.946 0-.236-.247-.473-.494-.71-.741-.472-1.235-.472-1.482 0-.247.237-.247.474-.247.71-.248.473 0 .71.247.946Zm-4.695 1.418c-.494 0-.988-.237-1.482-.473-.494-.473-.741-.945-.741-1.418s.247-.946.494-1.418c.741-.946 1.976-.946 2.965-.237.494.473.741.946.741 1.418 0 .473-.247.946-.494 1.419-.494.472-.989.709-1.483.709Zm-.988-1.418c.741.472 1.235.472 1.729 0 .248-.237.248-.473.248-.946 0-.236-.248-.473-.495-.71-.741-.472-.988-.472-1.729 0-.247.237-.247.474-.247.71.247.473.247.71.494.946Zm6.424-4.019c-.494 0-.988-.236-1.483-.473-.494-.472-.741-.945-.741-1.418s.247-.945.494-1.418c.742-.946 1.977-.946 2.965-.237.494.473.741.946.741 1.419 0 .472-.247.945-.494 1.418s-.741.71-1.482.71Zm-.741-1.182c.741.473 1.235.473 1.729 0 .247-.236.247-.473.247-.945 0-.237-.247-.473-.494-.71-.741-.472-1.235-.472-1.482 0-.247.237-.247.473-.247.71-.248.472 0 .709.247.945Z" fill="#3F3F3F"/></svg>