<svg width="30" height="32" fill="none" xmlns="http://www.w3.org/2000/svg"><path d="M8.053 28.202c-1.043 0-1.9.85-1.9 1.899 0 1.043.85 1.899 1.9 1.899a1.9 1.9 0 1 0 0-3.798ZM24.227 28.202c-1.044 0-1.9.85-1.9 1.899 0 1.043.85 1.899 1.9 1.899 1.043 0 1.9-.85 1.9-1.9a1.908 1.908 0 0 0-1.9-1.898Z" fill="#DBAA21"/><path d="M10.43 6.734V0H0v4.17h6.072v.007h.118v20.419l-.012-.044v.05h4.693l10.065-4.375 4.501-1.956 4.34-1.886V6.734H10.431Zm15.007 6.777-2.049.888-1.54.67-1.005.44-5.886 2.545-4.253 1.782-.186.099v-8.838h14.92v2.414Z" fill="#000"/></svg>