<svg width="28" height="32" fill="none" xmlns="http://www.w3.org/2000/svg"><path fill-rule="evenodd" clip-rule="evenodd" d="m26.654 16.646-.42-1.006-.48-1.14-.379-.875-.916-2.147-.206-.495-.159-.379-.878-2.063h-.014V.092h-.15V0H9.18l-.863 2.063-.156.379.159-.375-.157.375-.207.495-.916 2.147-.379.874-.48 1.14-.061.146H0v2.442h5.213v12.718h-.007l.007.016v.088h.035l.002.004.88 2.035.38.87.924 2.137.368.87.49 1.134.432 1.002.62 1.44h9.982l.619-1.44.433-1.002.491-1.134.366-.87.924-2.138.379-.87.62-1.563.047-.119V14.19l.132.317.49 1.14.432 1 .619 1.447h2.393l-.617-1.447ZM5.213 9.55v-.163.163Zm3.375-2.453.49-1.14.366-.875.924-2.147.214-.495h10.18v4.8H8.523l.064-.143ZM20.76 9.682v2.488l-.356-.835-.207-.495-.159-.379-.332-.782h1.054v.003ZM9.017 25.632l-.095-.22-.365-.87-.903-2.114v-7.763h.066a2.447 2.447 0 0 1 2.098-1.187h.112c.892 0 1.669.478 2.1 1.187h-.01v10.967H9.017Zm9.433 2.785-.48 1.134h-7.273l-.48-1.133-.15-.346h8.532l-.15.346Zm1.66-3.875-.366.87-.095.22h-5.193V14.665a4.772 4.772 0 0 0-6.804-2.902v-2.08h5.57l.334.783.163.378.213.496.925 2.146.366.875.49 1.14.434 1.007.62 1.446h2.394l-.617-1.447-.42-1.006-.48-1.14-.379-.875-.915-2.146-.207-.496-.159-.378-.332-.782h1.622l.335.782.163.378.213.496.925 2.146.365.875.491 1.14.434 1.007.557 1.299v5.176h.015l-.662 1.56Z" fill="#000"/><path d="M10.536 15.977a.662.662 0 0 0-.66-.66.662.662 0 0 0-.661.66.661.661 0 0 0 1.32 0Z" fill="#DBAA21"/></svg>