<svg width="27" height="32" fill="none" xmlns="http://www.w3.org/2000/svg"><path d="M13.474 0c1.053 0 1.881.832 1.881 1.891 0 1.06-.828 1.892-1.881 1.892-1.054 0-1.957-.833-1.957-1.892C11.592.832 12.42 0 13.474 0Z" fill="#D4AB42"/><path d="M17.614 10.213H11.44v4.615h6.173v-4.615Z" fill="#E5E5E5"/><path d="M11.441 12.482v2.346h6.323c1.807 0 3.387.983 4.29 2.42h4.969c-1.205-4.085-4.893-7.11-9.334-7.11-.677 0-1.43.075-2.032.226-1.656.454-3.087 1.135-4.216 2.118ZM17.614 24.89H11.44v4.614h6.173v-4.615Z" fill="#E5E5E5"/><path d="M11.441 27.159v2.345h6.323c1.807 0 3.387.983 4.29 2.42h4.969c-1.205-4.084-4.893-7.11-9.334-7.11-.677 0-1.43.075-2.032.226C14 25.42 12.57 26.1 11.44 27.16Z" fill="#E5E5E5"/><path d="M15.506 24.89H9.334v4.614h6.172v-4.615Z" fill="#E5E5E5"/><path d="M0 22.468c1.204 4.085 4.893 7.036 9.334 7.036.677 0 1.43-.076 2.032-.227 1.505-.303 2.936-1.06 4.14-2.043V24.89H9.183c-1.806 0-3.387-.983-4.29-2.42H0ZM15.506 10.213H9.334v4.615h6.172v-4.615Z" fill="#E5E5E5"/><path d="M0 7.792c1.204 4.085 4.893 7.111 9.334 7.111.677 0 1.43-.075 2.032-.227 1.505-.302 2.936-1.059 4.14-2.042v-2.346H9.183c-1.806 0-3.387-.983-4.29-2.42H0v-.076Z" fill="#E5E5E5"/><path d="M15.581 10.213h-4.14v19.29h4.14v-19.29Z" fill="#E5E5E5"/></svg>