<svg width="25" height="20" fill="none" xmlns="http://www.w3.org/2000/svg"><path d="M25 2.37a10.51 10.51 0 0 1-2.945.797A5.079 5.079 0 0 0 24.31.375a10.3 10.3 0 0 1-3.258 1.224A5.164 5.164 0 0 0 17.308 0c-2.835 0-5.128 2.26-5.128 5.047-.002.387.042.774.132 1.15A14.62 14.62 0 0 1 1.739.923a4.984 4.984 0 0 0-.697 2.536c0 1.75.913 3.297 2.291 4.203a5.078 5.078 0 0 1-2.332-.63v.063c0 2.448 1.77 4.484 4.115 4.948-.441.117-.895.177-1.351.177-.324 0-.647-.031-.964-.094.651 2.005 2.547 3.463 4.794 3.505A10.395 10.395 0 0 1 0 17.72a14.514 14.514 0 0 0 7.851 2.28c9.446 0 14.606-7.692 14.606-14.364 0-.218-.005-.437-.016-.65A10.336 10.336 0 0 0 25 2.37Z" fill="#fff"/></svg>