<svg width="36" height="32" fill="none" xmlns="http://www.w3.org/2000/svg"><path d="M16.997 21.184c-.947 0-1.745.747-1.745 1.744 0 .947.748 1.745 1.745 1.745.947 0 1.744-.748 1.744-1.695 0-.997-.797-1.794-1.744-1.794Z" fill="#DBAA21"/><path d="M27.364 0h-4.436l-2.89 6.68L17.145 0H12.71L9.82 6.68 6.927 0H0v32h35.389V18.492L27.364 0ZM4.735 27.265V6.829l2.542 5.831 2.542 5.832H14.953l-2.542-5.832 2.542-5.831 2.492 5.831 2.543 5.832H25.122l-2.543-5.832 2.543-5.831 5.482 11.663v8.773H4.735Z" fill="#fff"/></svg>