<svg width="44" height="24" fill="none" xmlns="http://www.w3.org/2000/svg"><path d="M16.606 14.134A2.143 2.143 0 0 0 18.74 12a2.143 2.143 0 0 0-2.134-2.134A2.143 2.143 0 0 0 14.472 12c.035 1.19.98 2.134 2.134 2.134Z" fill="#D4AB42"/><path d="M32.454 3.988V0H.792v23.965h31.662v-4.198A12.026 12.026 0 0 0 41.655 24c.63 0 1.224-.035 1.82-.14V.14c-4.864-.56-8.642 1.12-11.021 3.848ZM26.61 18.122H6.6V5.878H26.61v12.244Zm12.035-.734c-1.924-.735-3.358-3.044-3.358-5.318v-.28c0-2.239 1.05-4.513 3.358-5.318v10.916Z" fill="#3F3F3F"/></svg>