<svg width="44" height="24" fill="none" xmlns="http://www.w3.org/2000/svg"><path d="M16.605 14.134A2.143 2.143 0 0 0 18.739 12a2.143 2.143 0 0 0-2.134-2.134A2.143 2.143 0 0 0 14.47 12c.035 1.19.98 2.134 2.134 2.134Z" fill="#D4AB42"/><path d="M32.455 3.988V0H.793v23.965h31.662v-4.198a12.026 12.026 0 0 0 9.2 4.233c.63 0 1.225-.035 1.82-.14V.14c-4.863-.56-8.641 1.12-11.02 3.848Zm-5.843 14.134H6.601V5.878h20.011v12.244Zm12.035-.734c-1.924-.735-3.358-3.044-3.358-5.318v-.28c0-2.239 1.05-4.513 3.358-5.318v10.916Z" fill="#fff"/></svg>