<svg width="151" height="78" viewBox="0 0 151 78" fill="none" xmlns="http://www.w3.org/2000/svg">
<path d="M38.5002 31.9C34.7002 31.9 31.7002 35 31.7002 38.7C31.7002 42.5 34.8002 45.5 38.5002 45.5C42.3002 45.5 45.3002 42.4 45.3002 38.7C45.3002 34.9 42.2002 31.9 38.5002 31.9Z" fill="#DBAA21"/>
<path d="M111.7 31.9C107.9 31.9 104.9 35 104.9 38.7C104.9 42.5 108 45.5 111.7 45.5C115.5 45.5 118.5 42.4 118.5 38.7C118.5 34.9 115.4 31.9 111.7 31.9Z" fill="#DBAA21"/>
<path d="M144.7 18.7H147.6V0H74.4H1.20001V18.7H5.30002C1.90002 24.4 0 31.3 0 38.5C0 59.7 17.1 77.4 38.3 77.4C55.4 77.4 70 65.9 75 50.2C79.9 65.8 94.4 77.4 111.5 77.4C132.7 77.4 150 59.7 150 38.5C150.1 31.3 148 24.4 144.7 18.7ZM38.4 58.4C27.6 58.4 18.6 49.6 18.6 38.6C18.6 27.6 27.5 18.8 38.4 18.8C49.4 18.8 58.3 27.6 58.3 38.6C58.3 49.6 49.4 58.4 38.4 58.4ZM75 26.7C74.1 23.9 72.9 21.2 71.5 18.7H74.4H78.5C77.1 21.2 75.9 23.9 75 26.7ZM111.6 58.4C100.8 58.4 91.8 49.6 91.8 38.6C91.8 27.6 100.7 18.8 111.6 18.8C122.6 18.8 131.5 27.6 131.5 38.6C131.5 49.6 122.6 58.4 111.6 58.4Z" fill="#fff"/>
</svg>
