<svg width="70" height="143" viewBox="0 0 70 143" fill="none" xmlns="http://www.w3.org/2000/svg">
<path d="M34.6 28.5C31.3 28.5 28.5 31.2 28.5 34.6C28.5 37.9 31.2 40.7 34.6 40.7C37.9 40.7 40.7 38 40.7 34.6C40.7 31.2 38 28.5 34.6 28.5Z" fill="#DBAA21"/>
<path d="M43 86.6V68C58 64.2 69.1 50.7 69.1 34.6C69.1 15.5 53.6 0 34.5 0C15.5 0 0 15.5 0 34.6C0 50.7 11.2 64.3 26.1 68V88.2C21.6 86 16.4 84.7 11 84.7H10.7V101H11.4C17.6 101 23 104.2 26.1 108.9V142.7H26.2H42.8V130.1C45.9 125.3 51.4 122 57.6 122H58.3V105.8H58.2C52.7 105.8 47.5 107.1 43 109.3V107.6V86.6ZM34.9 52.3H34.2C24.4 52.3 16.5 44.4 16.5 34.5C16.5 24.7 24.4 16.8 34.2 16.8H35C44.9 16.8 52.8 24.7 52.8 34.5C52.8 44.3 44.8 52.3 34.9 52.3Z" fill="#fff"/>
</svg>
