<svg xmlns="http://www.w3.org/2000/svg" viewBox="0 0 57.21 22.38"><defs><style>.cls-1{fill:#fff;}.cls-2{fill:#dbaa21;}</style></defs><g id="Calque_2" data-name="Calque 2"><g id="Layer_1" data-name="Layer 1"><path class="cls-1" d="M29,22.22l19.28-7.83,8.94,3.85V12.32L29,.17h0L28.61,0l-.32.13L9,8,0,4.13v5.93L28.29,22.24l.22.09.1.05Zm-9-9.38L15,11l5.13-1.73,8.64-3.05L29,6.11l8.27,3.44,5,1.87-5.13,1.74-8.28,2.92-.28.1-.26.08v0Z"/><path class="cls-2" d="M29,9.21a1.89,1.89,0,1,0,1.89,1.89A1.89,1.89,0,0,0,29,9.21Z"/></g></g></svg>