<svg width="125" height="113" viewBox="0 0 125 113" fill="none" xmlns="http://www.w3.org/2000/svg">
<path d="M62.2999 74.8C58.9999 74.8 56.2 77.5 56.2 80.9C56.2 84.2 58.8999 87 62.2999 87C65.5999 87 68.4 84.3 68.4 80.9C68.4 77.5 65.6999 74.8 62.2999 74.8Z" fill="#DBAA21"/>
<path d="M96.5 0H80.9L70.7 23.6L60.4 0H44.9L34.6 23.6L24.4 0H16.6H8.8H0V20.4V62.4V96.1V112.9H16.6H124.6V111.3V96.2V65.2L96.5 0ZM16.6 96.2V24.1L25.5 44.6L34.4 65.1H34.8H52.6L43.7 44.6L52.6 24.1L61.5 44.6L70.4 65.1H70.8H88.6L79.7 44.6L88.6 24.1L108 65.2V96.2H16.6Z" fill="#fff"/>
</svg>
